# extracted from text_data.h: text
# auto-generated
v -32.589575 -0.018179 -0.003131
v -41.076647 -6.832415 -0.003131
v -37.442555 -6.827399 -0.003131
v -30.803879 -1.450247 -0.003131
v -29.025707 -0.018179 -0.003131
v -20.548667 6.786025 -0.003131
v -24.172727 6.786025 -0.003131
v -30.803879 1.403857 -0.003131
v -37.492715 6.788533 -0.003131
v -41.066615 6.786025 -0.003131
v -24.170219 -6.834923 -0.003131
v -20.538635 -6.832415 -0.003131
v -2.175059 0.448309 -0.003131
v -1.257131 1.208233 -0.003131
v -17.112707 -1.161827 -0.003131
v -3.494267 -1.161827 -0.003131
v -2.175059 -0.547367 -0.003131
v -2.779487 6.008545 -0.003131
v -3.153179 6.512653 -0.003131
v -4.652963 4.669273 -0.003131
v -2.425859 5.411641 -0.003131
v -4.530071 4.395901 -0.003131
v -4.367051 4.047289 -0.003131
v -2.099819 4.726957 -0.003131
v -4.183967 3.625945 -0.003131
v -1.811399 3.962017 -0.003131
v -3.990851 3.131869 -0.003131
v -1.568123 3.116821 -0.003131
v -3.802751 2.567569 -0.003131
v -3.639731 1.933045 -0.003131
v -1.382531 2.196385 -0.003131
v -3.514331 1.228297 -0.003131
v -17.092643 1.228297 -0.003131
v -21.376307 1.228297 -0.003131
v -21.376307 -1.161827 -0.003131
v -19.359875 -1.161827 -0.003131
v -19.349843 1.228297 -0.003131
v -3.504299 6.971617 -0.003131
v -17.090135 6.974125 -0.003131
v -15.954011 4.664257 -0.003131
v -17.473859 6.535225 -0.003131
v -17.842535 6.028609 -0.003131
v -18.191147 5.431705 -0.003131
v -16.076903 4.388377 -0.003131
v -16.239923 4.042273 -0.003131
v -18.512171 4.747021 -0.003131
v -16.423007 3.620929 -0.003131
v -18.795575 3.979573 -0.003131
v -16.616123 3.126853 -0.003131
v -19.036343 3.134377 -0.003131
v -16.801715 2.562553 -0.003131
v -19.221935 2.213941 -0.003131
v -16.967243 1.928029 -0.003131
v -19.241999 -2.185091 -0.003131
v -17.004863 -1.871591 -0.003131
v -19.053899 -3.133115 -0.003131
v -16.866923 -2.488559 -0.003131
v -18.808115 -4.000883 -0.003131
v -16.706411 -3.022763 -0.003131
v -16.528343 -3.491759 -0.003131
v -18.512171 -4.783379 -0.003131
v -16.335227 -3.913103 -0.003131
v -18.178607 -5.478095 -0.003131
v -16.134587 -4.301843 -0.003131
v -17.814947 -6.074999 -0.003131
v -15.928931 -4.675535 -0.003131
v -17.433731 -6.571583 -0.003131
v -17.072579 -6.977879 -0.003131
v -3.534395 -6.977879 -0.003131
v -4.690583 -4.683059 -0.003131
v -3.092987 -6.270623 -0.003131
v -2.666627 -5.553335 -0.003131
v -4.632899 -4.567691 -0.003131
v -4.487435 -4.279271 -0.003131
v -2.270363 -4.808459 -0.003131
v -4.284287 -3.840371 -0.003131
v -1.916735 -4.023455 -0.003131
v -4.053551 -3.283595 -0.003131
v -3.825323 -2.634023 -0.003131
v -1.618283 -3.183275 -0.003131
v -3.629699 -1.916735 -0.003131
v -1.395071 -2.280395 -0.003131
v -1.257131 -1.294751 -0.003131
v 4.614097 4.641685 -0.003131
v 17.101429 6.944029 -0.003131
v 3.405241 6.908917 -0.003131
v 15.917653 4.654225 -0.003131
v 17.550361 6.319537 -0.003131
v 3.106789 6.535225 -0.003131
v 17.999293 5.537041 -0.003131
v 2.675413 5.935813 -0.003131
v 16.073149 4.310629 -0.003131
v 18.423145 4.614097 -0.003131
v 16.281313 3.864205 -0.003131
v 16.514557 3.307429 -0.003131
v 18.796837 3.573277 -0.003131
v 16.745293 2.642809 -0.003131
v 19.092781 2.434645 -0.003131
v 16.943425 1.862821 -0.003131
v 19.290913 1.225789 -0.003131
v 17.083873 0.969973 -0.003131
v 19.361137 -0.038243 -0.003131
v 17.136541 -0.038243 -0.003131
v 19.293421 -1.272179 -0.003131
v 17.081365 -1.041443 -0.003131
v 19.102813 -2.390747 -0.003131
v 16.938409 -1.921751 -0.003131
v 18.809377 -3.416519 -0.003131
v 16.735261 -2.686691 -0.003131
v 18.435685 -4.369559 -0.003131
v 16.502017 -3.336263 -0.003131
v 2.271625 5.211001 -0.003131
v 4.453585 4.300597 -0.003131
v 4.242913 3.851665 -0.003131
v 1.912981 4.365805 -0.003131
v 4.004653 3.297397 -0.003131
v 1.607005 3.412765 -0.003131
v 3.771409 2.632777 -0.003131
v 1.373761 2.354389 -0.003131
v 3.570769 1.857805 -0.003131
v 1.223281 1.203217 -0.003131
v 3.430321 0.967465 -0.003131
v 1.170613 -0.038243 -0.003131
v 3.375145 -0.038243 -0.003131
v 1.238329 -1.272179 -0.003131
v 3.430321 -1.038935 -0.003131
v 1.426429 -2.390747 -0.003131
v 3.578293 -1.919243 -0.003131
v 1.719865 -3.416519 -0.003131
v 3.783949 -2.679167 -0.003131
v 2.091049 -4.369559 -0.003131
v 4.024717 -3.326231 -0.003131
v 16.266265 -3.877991 -0.003131
v 17.999293 -5.264915 -0.003131
v 16.053085 -4.314383 -0.003131
v 17.522773 -6.120143 -0.003131
v 15.897589 -4.647947 -0.003131
v 4.265485 -3.865451 -0.003131
v 2.524933 -5.264915 -0.003131
v 4.478665 -4.299335 -0.003131
v 3.001453 -6.120143 -0.003131
v 4.636669 -4.632899 -0.003131
v 17.026189 -6.960323 -0.003131
v 3.495529 -6.960323 -0.003131
v 29.006905 -0.018179 -0.003131
v 20.519833 -6.832415 -0.003131
v 24.151417 -6.832415 -0.003131
v 30.785077 -1.450247 -0.003131
v 37.421245 -6.834923 -0.003131
v 41.060353 -6.832415 -0.003131
v 32.573281 -0.018179 -0.003131
v 24.101257 6.801073 -0.003131
v 20.529865 6.786025 -0.003131
v 30.785077 1.403857 -0.003131
v 41.050321 6.670657 -0.003131
v 37.478929 6.760945 -0.003131
f 1 2 3
f 1 3 4
f 5 6 7
f 5 7 8
f 9 10 1
f 8 9 1
f 11 12 5
f 4 11 5
f 8 1 4
f 8 4 5
f 13 14 15
f 13 15 16
f 17 13 16
f 18 19 20
f 21 18 20
f 21 20 22
f 21 22 23
f 24 21 23
f 24 23 25
f 26 24 25
f 26 25 27
f 28 26 27
f 28 27 29
f 28 29 30
f 31 28 30
f 31 30 32
f 14 31 32
f 15 14 32
f 15 32 33
f 34 35 36
f 37 34 36
f 20 19 38
f 20 38 39
f 40 20 39
f 40 39 41
f 40 41 42
f 40 42 43
f 44 40 43
f 45 44 43
f 45 43 46
f 47 45 46
f 47 46 48
f 49 47 48
f 49 48 50
f 51 49 50
f 51 50 52
f 53 51 52
f 33 53 52
f 33 52 37
f 15 33 37
f 15 37 36
f 15 36 54
f 55 15 54
f 55 54 56
f 57 55 56
f 57 56 58
f 59 57 58
f 60 59 58
f 60 58 61
f 62 60 61
f 62 61 63
f 64 62 63
f 64 63 65
f 66 64 65
f 66 65 67
f 66 67 68
f 66 68 69
f 70 66 69
f 70 69 71
f 70 71 72
f 73 70 72
f 74 73 72
f 74 72 75
f 76 74 75
f 76 75 77
f 78 76 77
f 79 78 77
f 79 77 80
f 81 79 80
f 81 80 82
f 16 81 82
f 17 16 82
f 83 17 82
f 84 85 86
f 85 84 87
f 88 85 87
f 84 86 89
f 90 88 87
f 84 89 91
f 90 87 92
f 93 90 92
f 93 92 94
f 93 94 95
f 96 93 95
f 96 95 97
f 98 96 97
f 98 97 99
f 100 98 99
f 100 99 101
f 102 100 101
f 102 101 103
f 104 102 103
f 104 103 105
f 106 104 105
f 106 105 107
f 108 106 107
f 108 107 109
f 110 108 109
f 110 109 111
f 84 91 112
f 113 84 112
f 114 113 112
f 114 112 115
f 116 114 115
f 116 115 117
f 118 116 117
f 118 117 119
f 120 118 119
f 120 119 121
f 122 120 121
f 122 121 123
f 124 122 123
f 124 123 125
f 126 124 125
f 126 125 127
f 128 126 127
f 128 127 129
f 130 128 129
f 130 129 131
f 132 130 131
f 110 111 133
f 134 110 133
f 134 133 135
f 136 134 135
f 136 135 137
f 138 132 131
f 138 131 139
f 140 138 139
f 140 139 141
f 142 140 141
f 143 136 137
f 144 143 137
f 144 137 142
f 144 142 141
f 145 146 147
f 145 147 148
f 149 150 151
f 148 149 151
f 152 153 145
f 154 152 145
f 151 155 156
f 151 156 154
f 148 151 154
f 145 148 154
