# extracted from logo_data.h: xboxlogolip
# auto-generated
v 29.969523 -127.523049 -35.626869
v 34.947027 -127.523049 -38.668677
v 34.947027 -132.135141 -38.668677
v 29.969523 -132.135141 -35.626869
v 24.458715 -127.523049 -31.666593
v 29.969523 -127.523049 -35.626869
v 29.969523 -132.135141 -35.626869
v 24.458715 -132.135141 -31.666593
v 18.661503 -127.523049 -26.787849
v 24.458715 -127.523049 -31.666593
v 24.458715 -132.135141 -31.666593
v 18.661503 -132.135141 -26.787849
v 12.844539 -127.523049 -21.800469
v 12.844539 -132.135141 -21.800469
v 7.412739 -127.523049 -16.862469
v 12.844539 -127.523049 -21.800469
v 12.844539 -132.135141 -21.800469
v 7.412739 -132.135141 -16.862469
v 2.879655 -127.523049 -12.665169
v 2.879655 -132.135141 -12.665169
v 34.947027 -127.523049 -38.668677
v 30.404067 -127.523049 -33.276381
v 30.404067 -132.135141 -33.276381
v 34.947027 -132.135141 -38.668677
v 30.404067 -127.523049 -33.276381
v 26.127759 -127.523049 -27.518673
v 26.127759 -132.135141 -27.518673
v 30.404067 -132.135141 -33.276381
v 26.127759 -127.523049 -27.518673
v 22.039095 -127.523049 -21.622701
v 22.039095 -132.135141 -21.622701
v 26.127759 -132.135141 -27.518673
v -0.359673 -127.523049 -9.692493
v -0.359673 -132.135141 -9.692493
v -3.589125 -127.523049 -12.665169
v -0.359673 -127.523049 -9.692493
v -0.359673 -132.135141 -9.692493
v -3.589125 -132.135141 -12.665169
v -8.132085 -127.523049 -16.862469
v -8.132085 -132.135141 -16.862469
v -13.554009 -127.523049 -21.800469
v -13.554009 -132.135141 -21.800469
v -19.370973 -127.523049 -26.787849
v -13.554009 -127.523049 -21.800469
v -13.554009 -132.135141 -21.800469
v -19.370973 -132.135141 -26.787849
v -25.178061 -127.523049 -31.666593
v -25.178061 -132.135141 -31.666593
v -30.688869 -127.523049 -35.626869
v -25.178061 -127.523049 -31.666593
v -25.178061 -132.135141 -31.666593
v -30.688869 -132.135141 -35.626869
v -35.666373 -127.523049 -38.668677
v -30.688869 -127.523049 -35.626869
v -30.688869 -132.135141 -35.626869
v -35.666373 -132.135141 -38.668677
v -31.123413 -127.523049 -33.276381
v -35.666373 -127.523049 -38.668677
v -35.666373 -132.135141 -38.668677
v -31.123413 -132.135141 -33.276381
v -26.837229 -127.523049 -27.518673
v -31.123413 -127.523049 -33.276381
v -31.123413 -132.135141 -33.276381
v -26.837229 -132.135141 -27.518673
v -22.748565 -127.523049 -21.622701
v -26.837229 -127.523049 -27.518673
v -26.837229 -132.135141 -27.518673
v -22.748565 -132.135141 -21.622701
v 22.039095 -127.523049 -21.622701
v 18.147951 -127.523049 -15.795861
v 18.147951 -132.135141 -15.795861
v 22.039095 -132.135141 -21.622701
v -18.867297 -127.523049 -15.795861
v -22.748565 -127.523049 -21.622701
v -22.748565 -132.135141 -21.622701
v -18.867297 -132.135141 -15.795861
v 14.533335 -127.523049 -10.275177
v 14.533335 -132.135141 -10.275177
v -15.252681 -127.523049 -10.275177
v -15.252681 -132.135141 -10.275177
v 11.313759 -127.523049 -5.277921
v 11.313759 -132.135141 -5.277921
v -12.033105 -127.523049 -5.277921
v -12.033105 -132.135141 -5.277921
v 11.313759 -127.523049 -5.277921
v 8.973147 -127.523049 -1.031241
v 8.627487 -132.135141 -1.031241
v 8.627487 -132.135141 -1.031241
v 8.973147 -127.523049 -1.031241
v 12.350739 -127.523049 2.494491
v 12.350739 -132.125265 2.494491
v 12.350739 -132.125265 2.494491
v 8.627487 -132.135141 -1.031241
v 8.973147 -127.523049 -1.031241
v 12.350739 -127.523049 2.494491
v 16.202379 -127.523049 6.395511
v 16.202379 -132.125265 6.395511
v 12.350739 -132.125265 2.494491
v 16.202379 -127.523049 6.395511
v 20.054019 -127.523049 10.533555
v 20.054019 -132.125265 10.533555
v 16.202379 -132.125265 6.395511
v 20.054019 -127.523049 10.533555
v 23.777271 -127.513173 14.760483
v 23.777271 -132.125265 14.760483
v 20.054019 -132.125265 10.533555
v 23.777271 -127.513173 14.760483
v 27.263499 -127.513173 18.947907
v 27.263499 -132.125265 18.947907
v 23.777271 -132.125265 14.760483
v 27.263499 -127.513173 18.947907
v 30.364563 -127.513173 22.918059
v 30.364563 -132.125265 22.918059
v 27.263499 -132.125265 18.947907
v 30.364563 -127.513173 22.918059
v 32.971827 -127.513173 26.552427
v 32.971827 -132.125265 26.552427
v 30.364563 -132.125265 22.918059
v 32.971827 -127.513173 26.552427
v 29.386839 -127.513173 23.777271
v 29.386839 -132.125265 23.777271
v 32.971827 -132.125265 26.552427
v 29.386839 -127.513173 23.777271
v 24.834003 -127.513173 20.695959
v 24.834003 -132.125265 20.695959
v 29.386839 -132.125265 23.777271
v 24.834003 -127.513173 20.695959
v 19.649103 -127.513173 17.525763
v 19.649103 -132.125265 17.525763
v 24.834003 -132.125265 20.695959
v 19.649103 -127.513173 17.525763
v 14.197551 -127.523049 14.464203
v 14.197551 -132.125265 14.464203
v 19.649103 -132.125265 17.525763
v 14.197551 -127.523049 14.464203
v 8.815131 -127.523049 11.728551
v 8.815131 -132.125265 11.728551
v 14.197551 -132.125265 14.464203
v 8.815131 -127.523049 11.728551
v 3.847503 -127.523049 9.536079
v 3.847503 -132.125265 9.536079
v 8.815131 -132.125265 11.728551
v 3.847503 -127.523049 9.536079
v -0.359673 -127.523049 8.074431
v -0.359673 -132.135141 8.074431
v 3.847503 -132.125265 9.536079
v -0.359673 -127.523049 8.074431
v -4.556973 -127.523049 9.536079
v -4.556973 -132.125265 9.536079
v -0.359673 -132.135141 8.074431
v -4.556973 -127.523049 9.536079
v -9.504849 -127.523049 11.728551
v -9.504849 -132.125265 11.728551
v -4.556973 -132.125265 9.536079
v -9.504849 -127.523049 11.728551
v -14.877393 -127.523049 14.464203
v -14.877393 -132.125265 14.464203
v -9.504849 -132.125265 11.728551
v -14.877393 -127.523049 14.464203
v -20.309193 -127.513173 17.525763
v -20.309193 -132.125265 17.525763
v -14.877393 -132.125265 14.464203
v -20.309193 -127.513173 17.525763
v -25.494093 -127.513173 20.695959
v -25.494093 -132.125265 20.695959
v -20.309193 -132.125265 17.525763
v -25.494093 -127.513173 20.695959
v -30.056805 -127.513173 23.777271
v -30.056805 -132.125265 23.777271
v -25.494093 -132.125265 20.695959
v -30.056805 -127.513173 23.777271
v -33.681297 -127.513173 26.552427
v -33.681297 -132.125265 26.552427
v -30.056805 -132.125265 23.777271
v -33.681297 -127.513173 26.552427
v -31.123413 -127.513173 22.967439
v -31.123413 -132.125265 22.967439
v -33.681297 -132.125265 26.552427
v -31.123413 -127.513173 22.967439
v -28.032225 -127.513173 19.007163
v -28.032225 -132.125265 19.007163
v -31.123413 -132.125265 22.967439
v -28.032225 -127.513173 19.007163
v -24.555873 -127.513173 14.819739
v -24.555873 -132.125265 14.819739
v -28.032225 -132.125265 19.007163
v -24.555873 -127.513173 14.819739
v -20.812869 -127.523049 10.573059
v -20.812869 -132.125265 10.573059
v -24.555873 -132.125265 14.819739
v -20.812869 -127.523049 10.573059
v -16.941477 -127.523049 6.415263
v -16.941477 -132.125265 6.415263
v -20.812869 -132.125265 10.573059
v -16.941477 -127.523049 6.415263
v -13.070085 -127.523049 2.504367
v -13.070085 -132.125265 2.504367
v -16.941477 -132.125265 6.415263
v -13.070085 -127.523049 2.504367
v -9.643113 -127.523049 -1.031241
v -9.336957 -132.135141 -1.031241
v -9.336957 -132.135141 -1.031241
v -13.070085 -132.125265 2.504367
v -13.070085 -127.523049 2.504367
v -9.643113 -127.523049 -1.031241
v -12.033105 -127.523049 -5.277921
v -12.033105 -132.135141 -5.277921
v -12.033105 -132.135141 -5.277921
v -9.336957 -132.135141 -1.031241
v -9.643113 -127.523049 -1.031241
vt 0.969759 0.871855
vt 0.964887 0.999571
vt -0.001567 0.999223
vt 0.003305 0.871507
vt 0.975327 0.717923
vt 0.969759 0.871855
vt 0.003305 0.871507
vt 0.008873 0.717575
vt 0.981127 0.550535
vt 0.975327 0.717923
vt 0.008873 0.717575
vt 0.014731 0.550187
vt 0.986869 0.382277
vt 0.020415 0.381929
vt 0.992089 0.225793
vt 0.986869 0.382277
vt 0.020415 0.381929
vt 0.025635 0.225445
vt 0.996497 0.093727
vt 0.030043 0.093379
vt 0.026795 0.989247
vt 0.026795 0.733409
vt 0.971267 0.733409
vt 0.971267 0.989247
vt 0.026795 0.733409
vt 0.026795 0.499611
vt 0.971267 0.499611
vt 0.971267 0.733409
vt 0.026795 0.499611
vt 0.026795 0.380189
vt 0.971267 0.380189
vt 0.971267 0.499611
vt 0.999571 -0.001219
vt 0.033117 -0.001567
vt 0.977415 0.104167
vt 0.980199 0.011947
vt 0.040367 0.011599
vt 0.037641 0.103819
vt 0.973587 0.232347
vt 0.033813 0.232057
vt 0.969121 0.384307
vt 0.029347 0.383959
vt 0.964423 0.547693
vt 0.969121 0.384307
vt 0.029347 0.383959
vt 0.024649 0.547345
vt 0.959899 0.710209
vt 0.020067 0.709861
vt 0.955897 0.859617
vt 0.959899 0.710209
vt 0.020067 0.709861
vt 0.016065 0.859269
vt 0.952823 0.983621
vt 0.955897 0.859617
vt 0.016065 0.859269
vt 0.013049 0.983273
vt 0.031203 0.932291
vt 0.031203 0.981881
vt 0.966859 0.981881
vt 0.966859 0.932291
vt 0.031203 0.880903
vt 0.031203 0.932291
vt 0.966859 0.932291
vt 0.966859 0.880903
vt 0.031203 0.808461
vt 0.031203 0.880903
vt 0.966859 0.880903
vt 0.966859 0.808461
vt 0.026795 0.380189
vt 0.026795 0.267379
vt 0.971267 0.267379
vt 0.971267 0.380189
vt 0.031203 0.744951
vt 0.031203 0.808461
vt 0.966859 0.808461
vt 0.966859 0.744951
vt 0.026795 0.170461
vt 0.971267 0.170461
vt 0.031203 0.680107
vt 0.966859 0.680107
vt 0.026795 0.082997
vt 0.971267 0.082997
vt 0.031203 0.609579
vt 0.966859 0.609579
vt 0.026795 0.082997
vt 0.026795 0.012817
vt 0.971267 0.007771
vt 0.971267 0.007771
vt 0.483313 0.133051
vt 0.555871 0.253459
vt 0.157875 0.273991
vt 0.157875 0.273991
vt 0.085317 0.153583
vt 0.483313 0.133051
vt 0.555871 0.253459
vt 0.632489 0.380537
vt 0.234493 0.401069
vt 0.157875 0.273991
vt 0.632489 0.380537
vt 0.710557 0.509935
vt 0.312561 0.530467
vt 0.234493 0.401069
vt 0.710557 0.509935
vt 0.787465 0.637419
vt 0.389527 0.657951
vt 0.312561 0.530467
vt 0.787465 0.637419
vt 0.860603 0.758581
vt 0.462665 0.779113
vt 0.389527 0.657951
vt 0.860603 0.758581
vt 0.927419 0.869129
vt 0.529423 0.889661
vt 0.462665 0.779113
vt 0.927419 0.869129
vt 0.985129 0.964713
vt 0.587249 0.985245
vt 0.529423 0.889661
vt 0.017689 0.989827
vt 0.018153 0.867679
vt 0.978749 0.867679
vt 0.978285 0.989827
vt 0.018153 0.867679
vt 0.018559 0.733525
vt 0.979155 0.733525
vt 0.978749 0.867679
vt 0.018559 0.733525
vt 0.018965 0.600125
vt 0.979503 0.600125
vt 0.979155 0.733525
vt 0.018965 0.600125
vt 0.019255 0.470669
vt 0.979851 0.470669
vt 0.979503 0.600125
vt 0.019255 0.470669
vt 0.019545 0.314301
vt 0.980141 0.314301
vt 0.979851 0.470669
vt 0.019545 0.314301
vt 0.019661 0.172839
vt 0.980257 0.172839
vt 0.980141 0.314301
vt 0.019661 0.172839
vt 0.019777 0.056723
vt 0.980315 0.056723
vt 0.980257 0.172839
vt 0.015079 0.008293
vt 0.015021 0.123945
vt 0.984955 0.123945
vt 0.985013 0.008293
vt 0.015021 0.123945
vt 0.014847 0.247833
vt 0.984781 0.247833
vt 0.984955 0.123945
vt 0.014847 0.247833
vt 0.014615 0.384307
vt 0.984549 0.384307
vt 0.984781 0.247833
vt 0.014615 0.384307
vt 0.014267 0.520781
vt 0.984201 0.520781
vt 0.984549 0.384307
vt 0.014267 0.520781
vt 0.013861 0.659053
vt 0.983795 0.659053
vt 0.984201 0.520781
vt 0.013861 0.659053
vt 0.013455 0.798659
vt 0.983389 0.798659
vt 0.983795 0.659053
vt 0.013455 0.798659
vt 0.013049 0.977705
vt 0.982925 0.977705
vt 0.983389 0.798659
vt 0.985071 0.984491
vt 0.977299 0.885775
vt 0.062233 0.886413
vt 0.070005 0.985129
vt 0.977299 0.885775
vt 0.968831 0.770819
vt 0.053765 0.771399
vt 0.062233 0.886413
vt 0.968831 0.770819
vt 0.960073 0.644321
vt 0.045007 0.644901
vt 0.053765 0.771399
vt 0.960073 0.644321
vt 0.951315 0.511095
vt 0.036191 0.511733
vt 0.045007 0.644901
vt 0.951315 0.511095
vt 0.942905 0.375955
vt 0.027781 0.376535
vt 0.036191 0.511733
vt 0.942905 0.375955
vt 0.935075 0.243541
vt 0.019951 0.244121
vt 0.027781 0.376535
vt 0.935075 0.243541
vt 0.928231 0.118667
vt 0.013107 0.119247
vt 0.013107 0.119247
vt 0.019951 0.244121
vt 0.935075 0.243541
vt 0.031203 0.547751
vt 0.031203 0.609579
vt 0.966859 0.609579
vt 0.966859 0.609579
vt 0.966859 0.543343
vt 0.031203 0.547751
f 3/3 2/2 1/1
f 1/1 4/4 3/3
f 7/7 6/6 5/5
f 5/5 8/8 7/7
f 11/11 10/10 9/9
f 9/9 12/12 11/11
f 12/12 9/9 13/13
f 13/13 14/14 12/12
f 17/17 16/16 15/15
f 15/15 18/18 17/17
f 18/18 15/15 19/19
f 19/19 20/20 18/18
f 23/23 22/22 21/21
f 21/21 24/24 23/23
f 27/27 26/26 25/25
f 25/25 28/28 27/27
f 31/31 30/30 29/29
f 29/29 32/32 31/31
f 20/20 19/19 33/33
f 33/33 34/34 20/20
f 37/37 36/36 35/35
f 35/35 38/38 37/37
f 38/38 35/35 39/39
f 39/39 40/40 38/38
f 40/40 39/39 41/41
f 41/41 42/42 40/40
f 45/45 44/44 43/43
f 43/43 46/46 45/45
f 46/46 43/43 47/47
f 47/47 48/48 46/46
f 51/51 50/50 49/49
f 49/49 52/52 51/51
f 55/55 54/54 53/53
f 53/53 56/56 55/55
f 59/59 58/58 57/57
f 57/57 60/60 59/59
f 63/63 62/62 61/61
f 61/61 64/64 63/63
f 67/67 66/66 65/65
f 65/65 68/68 67/67
f 71/71 70/70 69/69
f 69/69 72/72 71/71
f 75/75 74/74 73/73
f 73/73 76/76 75/75
f 78/78 77/77 70/70
f 70/70 71/71 78/78
f 76/76 73/73 79/79
f 79/79 80/80 76/76
f 82/82 81/81 77/77
f 77/77 78/78 82/82
f 80/80 79/79 83/83
f 83/83 84/84 80/80
f 87/87 86/86 85/85
f 81/81 82/82 88/88
f 91/91 90/90 89/89
f 94/94 93/93 92/92
f 97/97 96/96 95/95
f 95/95 98/98 97/97
f 101/101 100/100 99/99
f 99/99 102/102 101/101
f 105/105 104/104 103/103
f 103/103 106/106 105/105
f 109/109 108/108 107/107
f 107/107 110/110 109/109
f 113/113 112/112 111/111
f 111/111 114/114 113/113
f 117/117 116/116 115/115
f 115/115 118/118 117/117
f 121/121 120/120 119/119
f 119/119 122/122 121/121
f 125/125 124/124 123/123
f 123/123 126/126 125/125
f 129/129 128/128 127/127
f 127/127 130/130 129/129
f 133/133 132/132 131/131
f 131/131 134/134 133/133
f 137/137 136/136 135/135
f 135/135 138/138 137/137
f 141/141 140/140 139/139
f 139/139 142/142 141/141
f 145/145 144/144 143/143
f 143/143 146/146 145/145
f 149/149 148/148 147/147
f 147/147 150/150 149/149
f 153/153 152/152 151/151
f 151/151 154/154 153/153
f 157/157 156/156 155/155
f 155/155 158/158 157/157
f 161/161 160/160 159/159
f 159/159 162/162 161/161
f 165/165 164/164 163/163
f 163/163 166/166 165/165
f 169/169 168/168 167/167
f 167/167 170/170 169/169
f 173/173 172/172 171/171
f 171/171 174/174 173/173
f 177/177 176/176 175/175
f 175/175 178/178 177/177
f 181/181 180/180 179/179
f 179/179 182/182 181/181
f 185/185 184/184 183/183
f 183/183 186/186 185/185
f 189/189 188/188 187/187
f 187/187 190/190 189/189
f 193/193 192/192 191/191
f 191/191 194/194 193/193
f 197/197 196/196 195/195
f 195/195 198/198 197/197
f 201/201 200/200 199/199
f 204/204 203/203 202/202
f 207/207 206/206 205/205
f 210/210 209/209 208/208
