# extracted from logo_data.h: xboxlogointerior
# auto-generated
v 39.391227 -99.978885 -44.080725
v 40.635603 -99.978885 -44.890557
v 34.947027 -127.523049 -38.668677
v 39.391227 -99.978885 -44.080725
v 34.858143 -99.978885 -41.315445
v 84.613431 180.193359 -99.218433
v 33.475503 -99.978885 -40.199457
v 34.858143 -99.978885 -41.315445
v 29.969523 -127.523049 -35.626869
v 33.475503 -99.978885 -40.199457
v 28.458495 -99.978885 -36.594717
v 69.167367 180.193359 -86.725293
v 27.006723 -99.978885 -35.291085
v 28.458495 -99.978885 -36.594717
v 24.458715 -127.523049 -31.666593
v 27.006723 -99.978885 -35.291085
v 21.723063 -99.978885 -30.846885
v 52.911471 180.193359 -72.168069
v 20.261415 -99.978885 -29.483997
v 21.723063 -99.978885 -30.846885
v 18.661503 -127.523049 -26.787849
v 20.261415 -99.978885 -29.483997
v 14.967879 -99.978885 -24.941037
v 36.625947 180.193359 -56.919525
v 13.614867 -99.978885 -23.657157
v 14.967879 -99.978885 -24.941037
v 12.844539 -127.523049 -21.800469
v 13.614867 -99.978885 -23.657157
v 8.666991 -99.978885 -19.153701
v 21.426783 180.193359 -42.540069
v 7.531251 -99.978885 -18.106845
v 7.412739 -127.523049 -16.862469
v 3.403083 -99.978885 -14.284833
v 8.706495 180.193359 -30.787629
v 36.507435 -99.978885 -39.992061
v 35.371695 -99.978885 -38.550165
v 30.404067 -127.523049 -33.276381
v 36.507435 -99.978885 -39.992061
v 40.635603 -99.978885 -44.890557
v 98.548467 180.193359 -108.284601
v 31.470675 -99.978885 -33.306009
v 30.394191 -99.978885 -31.775229
v 26.127759 -127.523049 -27.518673
v 31.470675 -99.978885 -33.306009
v 35.371695 -99.978885 -38.550165
v 85.838055 180.193359 -92.216349
v 26.670939 -99.978885 -26.402685
v 25.643835 -99.978885 -24.832401
v 22.039095 -127.523049 -21.622701
v 26.670939 -99.978885 -26.402685
v 73.828839 180.193359 -75.071613
v 2.583375 -99.978885 -13.494753
v 3.403083 -99.978885 -14.284833
v 2.879655 -127.523049 -12.665169
v 2.583375 -99.978885 -13.494753
v -0.359673 -99.978885 -10.798605
v -0.359673 180.193359 -21.958485
v -1.169505 -99.978885 -11.588685
v -0.359673 -99.978885 -10.798605
v -0.359673 -127.523049 -9.692493
v -1.169505 -99.978885 -11.588685
v -4.112553 -99.978885 -14.284833
v -9.415965 180.193359 -30.787629
v -5.248293 -99.978885 -15.331689
v -3.589125 -127.523049 -12.665169
v -9.386337 -99.978885 -19.153701
v -22.136253 180.193359 -42.540069
v -10.749225 -99.978885 -20.447457
v -8.132085 -127.523049 -16.862469
v -10.749225 -99.978885 -20.447457
v -15.687225 -99.978885 -24.941037
v -37.335417 180.193359 -56.919525
v -17.138997 -99.978885 -26.303925
v -15.687225 -99.978885 -24.941037
v -13.554009 -127.523049 -21.800469
v -17.138997 -99.978885 -26.303925
v -22.442409 -99.978885 -30.846885
v -53.630817 180.193359 -72.168069
v -23.894181 -99.978885 -32.150517
v -22.442409 -99.978885 -30.846885
v -19.370973 -127.523049 -26.787849
v -23.894181 -99.978885 -32.150517
v -29.177841 -99.978885 -36.594717
v -69.886713 180.193359 -86.725293
v -30.560481 -99.978885 -37.710705
v -29.177841 -99.978885 -36.594717
v -25.178061 -127.523049 -31.666593
v -30.560481 -99.978885 -37.710705
v -35.577489 -99.978885 -41.315445
v -85.322901 180.193359 -99.218433
v -36.821865 -99.978885 -42.125277
v -35.577489 -99.978885 -41.315445
v -30.688869 -127.523049 -35.626869
v -36.821865 -99.978885 -42.125277
v -41.354949 -99.978885 -44.890557
v -99.267813 180.193359 -108.284601
v -40.219209 -99.978885 -43.458537
v -41.354949 -99.978885 -44.890557
v -35.666373 -127.523049 -38.668677
v -40.219209 -99.978885 -43.458537
v -36.081165 -99.978885 -38.550165
v -86.547525 180.193359 -92.216349
v -35.004681 -99.978885 -37.019385
v -36.081165 -99.978885 -38.550165
v -31.123413 -127.523049 -33.276381
v -35.004681 -99.978885 -37.019385
v -31.103661 -99.978885 -31.775229
v -74.548185 180.193359 -75.071613
v -30.086433 -99.978885 -30.204945
v -31.103661 -99.978885 -31.775229
v -26.837229 -127.523049 -27.518673
v -30.086433 -99.978885 -30.204945
v -26.363181 -99.978885 -24.832401
v -63.101901 180.193359 -57.482457
v 22.108227 -99.978885 -19.528989
v 21.140379 -99.978885 -17.978457
v 18.147951 -127.523049 -15.795861
v 22.108227 -99.978885 -19.528989
v 62.382555 180.193359 -57.482457
v -25.385457 -99.978885 -23.271993
v -26.363181 -99.978885 -24.832401
v -22.748565 -127.523049 -21.622701
v -25.385457 -99.978885 -23.271993
v -21.849849 -99.978885 -17.978457
v -52.218549 180.193359 -40.140201
v 17.841795 -99.978885 -12.941697
v 16.933203 -99.978885 -11.470173
v 14.533335 -127.523049 -10.275177
v 17.841795 -99.978885 -12.941697
v 21.140379 -99.978885 -17.978457
v 51.499203 180.193359 -40.140201
v -20.941257 -99.978885 -16.497057
v -21.849849 -99.978885 -17.978457
v -18.867297 -127.523049 -15.795861
v -20.941257 -99.978885 -16.497057
v -17.652549 -99.978885 -11.470173
v -42.075897 180.193359 -23.676909
v 14.000031 -99.978885 -6.927213
v 13.200075 -99.978885 -5.593953
v 11.313759 -127.523049 -5.277921
v 14.000031 -99.978885 -6.927213
v 16.933203 -99.978885 -11.470173
v 41.356551 180.193359 -23.676909
v -16.842717 -99.978885 -10.136913
v -17.652549 -99.978885 -11.470173
v -15.252681 -127.523049 -10.275177
v -16.842717 -99.978885 -10.136913
v -13.909545 -99.978885 -5.593953
v -33.059109 180.193359 -8.793777
v 11.056983 -99.978885 -1.722561
v 10.385415 -99.978885 -0.596697
v 8.973147 -127.523049 -1.031241
v 11.056983 -99.978885 -1.722561
v 13.200075 -99.978885 -5.593953
v 32.349639 180.193359 -8.793777
v 13.466727 -99.978885 2.622879
v 14.404947 -99.978885 3.561099
v 12.350739 -127.523049 2.494491
v 13.466727 -99.978885 2.622879
v 10.385415 -99.978885 -0.596697
v 24.804375 180.193359 3.867255
v 17.910927 -99.978885 7.106583
v 18.868899 -99.978885 8.143563
v 16.202379 -127.523049 6.395511
v 17.910927 -99.978885 7.106583
v 35.243307 180.193359 14.385195
v 22.374879 -99.978885 11.916195
v 23.342727 -99.978885 13.022307
v 20.054019 -127.523049 10.533555
v 22.374879 -99.978885 11.916195
v 46.037775 180.193359 25.989495
v 26.740071 -99.978885 16.873947
v 27.668415 -99.978885 17.999811
v 23.777271 -127.513173 14.760483
v 26.740071 -99.978885 16.873947
v 56.832243 180.193359 38.324619
v 30.838611 -99.978885 21.802071
v 31.707699 -99.978885 22.918059
v 27.263499 -127.513173 18.947907
v 30.838611 -99.978885 21.802071
v 67.271175 180.193359 50.936271
v 34.532235 -99.978885 26.542551
v 35.312439 -99.978885 27.609159
v 30.364563 -127.513173 22.918059
v 34.532235 -99.978885 26.542551
v 77.008911 180.193359 63.389907
v 37.692555 -99.978885 30.907743
v 38.344371 -99.978885 31.875591
v 32.971827 -127.513173 26.552427
v 37.692555 -99.978885 30.907743
v 85.709667 180.193359 75.250983
v 35.075415 -99.978885 29.347335
v 34.176699 -99.978885 28.616511
v 29.386839 -127.513173 23.777271
v 35.075415 -99.978885 29.347335
v 38.344371 -99.978885 31.875591
v 93.008031 180.203235 86.065203
v 30.028779 -99.978885 25.811727
v 28.893039 -99.978885 24.982143
v 24.834003 -127.513173 20.695959
v 30.028779 -99.978885 25.811727
v 34.176699 -99.978885 28.616511
v 82.964139 180.193359 77.798991
v 24.172311 -99.978885 22.098351
v 22.878555 -99.978885 21.249015
v 19.649103 -127.513173 17.525763
v 24.172311 -99.978885 22.098351
v 28.893039 -99.978885 24.982143
v 70.204347 180.193359 68.614311
v 17.910927 -99.978885 18.463983
v 16.548039 -99.978885 17.644275
v 14.197551 -127.523049 14.464203
v 17.910927 -99.978885 18.463983
v 22.878555 -99.978885 21.249015
v 55.696503 180.193359 59.162979
v 11.639667 -99.978885 15.155523
v 10.286655 -99.978885 14.434575
v 8.815131 -127.523049 11.728551
v 11.639667 -99.978885 15.155523
v 16.548039 -99.978885 17.644275
v 40.418331 180.193359 50.037555
v 5.773323 -99.978885 12.429747
v 4.519071 -99.978885 11.837187
v 3.847503 -127.523049 9.536079
v 5.773323 -99.978885 12.429747
v 10.286655 -99.978885 14.434575
v 25.337679 180.193359 41.889855
v 0.697059 -99.978885 10.513803
v -0.359673 -99.978885 10.128639
v -0.359673 -127.523049 8.074431
v 0.697059 -99.978885 10.513803
v 4.519071 -99.978885 11.837187
v 11.422395 180.193359 35.342067
v -4.181685 -99.978885 11.452023
v -5.228541 -99.978885 11.837187
v -4.556973 -127.523049 9.536079
v -4.181685 -99.978885 11.452023
v -0.359673 -99.978885 10.128639
v -0.359673 180.193359 31.006503
v -9.741873 -99.978885 13.842015
v -10.976373 -99.978885 14.434575
v -9.504849 -127.523049 11.728551
v -9.741873 -99.978885 13.842015
v -5.228541 -99.978885 11.837187
v -12.112113 180.193359 35.342067
v -15.864993 -99.978885 16.923327
v -17.208129 -99.978885 17.644275
v -14.877393 -127.523049 14.464203
v -15.864993 -99.978885 16.923327
v -10.976373 -99.978885 14.434575
v -25.987893 180.193359 41.889855
v -22.165881 -99.978885 20.429307
v -23.528769 -99.978885 21.249015
v -20.309193 -127.513173 17.525763
v -22.165881 -99.978885 20.429307
v -17.208129 -99.978885 17.644275
v -41.019165 180.193359 50.037555
v -28.239621 -99.978885 24.142683
v -29.543253 -99.978885 24.982143
v -25.494093 -127.513173 20.695959
v -28.239621 -99.978885 24.142683
v -56.267709 180.193359 59.162979
v -33.701049 -99.978885 27.786927
v -34.846665 -99.978885 28.616511
v -30.056805 -127.513173 23.777271
v -33.701049 -99.978885 27.786927
v -29.543253 -99.978885 24.982143
v -70.765677 180.193359 68.614311
v -38.145249 -99.978885 31.134891
v -39.053841 -99.978885 31.875591
v -33.681297 -127.513173 26.552427
v -38.145249 -99.978885 31.134891
v -34.846665 -99.978885 28.616511
v -83.574849 180.193359 77.798991
v -36.723105 -99.978885 28.606635
v -36.081165 -99.978885 27.658539
v -31.123413 -127.513173 22.967439
v -36.723105 -99.978885 28.606635
v -39.053841 -99.978885 31.875591
v -93.727377 180.203235 86.065203
v -33.266505 -99.978885 24.043923
v -32.496177 -99.978885 22.987191
v -28.032225 -127.513173 19.007163
v -33.266505 -99.978885 24.043923
v -36.081165 -99.978885 27.658539
v -86.547525 180.193359 75.379371
v -29.325981 -99.978885 19.184931
v -28.456893 -99.978885 18.068943
v -24.555873 -127.513173 14.819739
v -29.325981 -99.978885 19.184931
v -32.496177 -99.978885 22.987191
v -77.896149 180.193359 63.567675
v -25.049673 -99.978885 14.197551
v -24.111453 -99.978885 13.071687
v -20.812869 -127.523049 10.573059
v -25.049673 -99.978885 14.197551
v -28.456893 -99.978885 18.068943
v -68.148537 180.193359 51.104163
v -20.585721 -99.978885 9.289179
v -19.617873 -99.978885 8.173191
v -16.941477 -127.523049 6.415263
v -20.585721 -99.978885 9.289179
v -24.111453 -99.978885 13.071687
v -57.660225 180.193359 38.453007
v -16.092141 -99.978885 4.617831
v -15.124293 -99.978885 3.570975
v -13.070085 -127.523049 2.504367
v -16.092141 -99.978885 4.617831
v -19.617873 -99.978885 8.173191
v -46.816377 180.193359 26.058627
v -11.993601 -99.978885 0.351399
v -11.065257 -99.978885 -0.596697
v -9.643113 -127.523049 -1.031241
v -15.124293 -99.978885 3.570975
v -35.982405 180.193359 14.404947
v -13.237977 -99.978885 -4.458213
v -13.909545 -99.978885 -5.593953
v -12.033105 -127.523049 -5.277921
v -13.237977 -99.978885 -4.458213
v -11.065257 -99.978885 -0.596697
v -25.523721 180.193359 3.867255
v 98.548467 180.193359 -108.284601
v 84.613431 180.193359 -99.218433
v 29.969523 -127.523049 -35.626869
v 34.947027 -127.523049 -38.668677
v 84.613431 180.193359 -99.218433
v 69.167367 180.193359 -86.725293
v 24.458715 -127.523049 -31.666593
v 29.969523 -127.523049 -35.626869
v 69.167367 180.193359 -86.725293
v 52.911471 180.193359 -72.168069
v 18.661503 -127.523049 -26.787849
v 24.458715 -127.523049 -31.666593
v 52.911471 180.193359 -72.168069
v 36.625947 180.193359 -56.919525
v 12.844539 -127.523049 -21.800469
v 21.426783 180.193359 -42.540069
v 12.844539 -127.523049 -21.800469
v 2.879655 -127.523049 -12.665169
v 85.838055 180.193359 -92.216349
v 98.548467 180.193359 -108.284601
v 85.838055 180.193359 -92.216349
v 36.507435 -99.978885 -39.992061
v 34.947027 -127.523049 -38.668677
v 30.404067 -127.523049 -33.276381
v 85.838055 180.193359 -92.216349
v 30.404067 -127.523049 -33.276381
v 26.127759 -127.523049 -27.518673
v 73.828839 180.193359 -75.071613
v 22.039095 -127.523049 -21.622701
v 8.706495 180.193359 -30.787629
v -0.359673 180.193359 -21.958485
v -0.359673 -127.523049 -9.692493
v -0.359673 180.193359 -21.958485
v -9.415965 180.193359 -30.787629
v -0.359673 -127.523049 -9.692493
v -37.335417 180.193359 -56.919525
v -13.554009 -127.523049 -21.800469
v -8.132085 -127.523049 -16.862469
v -53.630817 180.193359 -72.168069
v -19.370973 -127.523049 -26.787849
v -13.554009 -127.523049 -21.800469
v -53.630817 180.193359 -72.168069
v -69.886713 180.193359 -86.725293
v -25.178061 -127.523049 -31.666593
v -69.886713 180.193359 -86.725293
v -85.322901 180.193359 -99.218433
v -30.688869 -127.523049 -35.626869
v -25.178061 -127.523049 -31.666593
v -85.322901 180.193359 -99.218433
v -99.267813 180.193359 -108.284601
v -35.666373 -127.523049 -38.668677
v -30.688869 -127.523049 -35.626869
v -99.267813 180.193359 -108.284601
v -86.547525 180.193359 -92.216349
v -31.123413 -127.523049 -33.276381
v -35.666373 -127.523049 -38.668677
v -86.547525 180.193359 -92.216349
v -74.548185 180.193359 -75.071613
v -26.837229 -127.523049 -27.518673
v -31.123413 -127.523049 -33.276381
v -74.548185 180.193359 -75.071613
v -63.101901 180.193359 -57.482457
v -22.748565 -127.523049 -21.622701
v -26.837229 -127.523049 -27.518673
v 51.499203 180.193359 -40.140201
v 62.382555 180.193359 -57.482457
v 18.147951 -127.523049 -15.795861
v -63.101901 180.193359 -57.482457
v -52.218549 180.193359 -40.140201
v -18.867297 -127.523049 -15.795861
v -22.748565 -127.523049 -21.622701
v 41.356551 180.193359 -23.676909
v 14.533335 -127.523049 -10.275177
v -42.075897 180.193359 -23.676909
v -15.252681 -127.523049 -10.275177
v 32.349639 180.193359 -8.793777
v 11.313759 -127.523049 -5.277921
v -33.059109 180.193359 -8.793777
v -12.033105 -127.523049 -5.277921
v 24.804375 180.193359 3.867255
v 11.313759 -127.523049 -5.277921
v 8.973147 -127.523049 -1.031241
v 24.804375 180.193359 3.867255
v 8.973147 -127.523049 -1.031241
v 12.350739 -127.523049 2.494491
v 35.243307 180.193359 14.385195
v 16.202379 -127.523049 6.395511
v 46.037775 180.193359 25.989495
v 20.054019 -127.523049 10.533555
v 56.832243 180.193359 38.324619
v 23.777271 -127.513173 14.760483
v 67.271175 180.193359 50.936271
v 27.263499 -127.513173 18.947907
v 77.008911 180.193359 63.389907
v 30.364563 -127.513173 22.918059
v 93.008031 180.203235 86.065203
v 85.709667 180.193359 75.250983
v 32.971827 -127.513173 26.552427
v 82.964139 180.193359 77.798991
v 93.008031 180.203235 86.065203
v 32.971827 -127.513173 26.552427
v 29.386839 -127.513173 23.777271
v 70.204347 180.193359 68.614311
v 82.964139 180.193359 77.798991
v 29.386839 -127.513173 23.777271
v 24.834003 -127.513173 20.695959
v 55.696503 180.193359 59.162979
v 70.204347 180.193359 68.614311
v 24.834003 -127.513173 20.695959
v 19.649103 -127.513173 17.525763
v 40.418331 180.193359 50.037555
v 55.696503 180.193359 59.162979
v 19.649103 -127.513173 17.525763
v 14.197551 -127.523049 14.464203
v 25.337679 180.193359 41.889855
v 40.418331 180.193359 50.037555
v 14.197551 -127.523049 14.464203
v 8.815131 -127.523049 11.728551
v 11.422395 180.193359 35.342067
v 25.337679 180.193359 41.889855
v 8.815131 -127.523049 11.728551
v 3.847503 -127.523049 9.536079
v -0.359673 180.193359 31.006503
v 11.422395 180.193359 35.342067
v 3.847503 -127.523049 9.536079
v -0.359673 -127.523049 8.074431
v -12.112113 180.193359 35.342067
v -0.359673 180.193359 31.006503
v -0.359673 -127.523049 8.074431
v -4.556973 -127.523049 9.536079
v -25.987893 180.193359 41.889855
v -12.112113 180.193359 35.342067
v -4.556973 -127.523049 9.536079
v -9.504849 -127.523049 11.728551
v -41.019165 180.193359 50.037555
v -25.987893 180.193359 41.889855
v -9.504849 -127.523049 11.728551
v -14.877393 -127.523049 14.464203
v -41.019165 180.193359 50.037555
v -14.877393 -127.523049 14.464203
v -20.309193 -127.513173 17.525763
v -70.765677 180.193359 68.614311
v -56.267709 180.193359 59.162979
v -25.494093 -127.513173 20.695959
v -83.574849 180.193359 77.798991
v -70.765677 180.193359 68.614311
v -25.494093 -127.513173 20.695959
v -30.056805 -127.513173 23.777271
v -93.727377 180.203235 86.065203
v -83.574849 180.193359 77.798991
v -30.056805 -127.513173 23.777271
v -33.681297 -127.513173 26.552427
v -86.547525 180.193359 75.379371
v -93.727377 180.203235 86.065203
v -33.681297 -127.513173 26.552427
v -31.123413 -127.513173 22.967439
v -77.896149 180.193359 63.567675
v -86.547525 180.193359 75.379371
v -31.123413 -127.513173 22.967439
v -28.032225 -127.513173 19.007163
v -68.148537 180.193359 51.104163
v -77.896149 180.193359 63.567675
v -28.032225 -127.513173 19.007163
v -24.555873 -127.513173 14.819739
v -57.660225 180.193359 38.453007
v -68.148537 180.193359 51.104163
v -24.555873 -127.513173 14.819739
v -20.812869 -127.523049 10.573059
v -46.816377 180.193359 26.058627
v -57.660225 180.193359 38.453007
v -20.812869 -127.523049 10.573059
v -16.941477 -127.523049 6.415263
v -35.982405 180.193359 14.404947
v -46.816377 180.193359 26.058627
v -16.941477 -127.523049 6.415263
v -13.070085 -127.523049 2.504367
v -25.523721 180.193359 3.867255
v -25.523721 180.193359 3.867255
v -9.643113 -127.523049 -1.031241
v -12.033105 -127.523049 -5.277921
vt 0.093321 0.935887
vt 0.085143 0.940295
vt 0.016819 0.340111
vt 0.093321 0.935887
vt 0.122553 0.919995
vt 0.336979 0.932523
vt 0.132355 0.914659
vt 0.122553 0.919995
vt 0.055621 0.299975
vt 0.132355 0.914659
vt 0.166459 0.896157
vt 0.446715 0.872957
vt 0.177247 0.890299
vt 0.166459 0.896157
vt 0.100977 0.252995
vt 0.177247 0.890299
vt 0.215353 0.869593
vt 0.566949 0.807649
vt 0.226315 0.863619
vt 0.215353 0.869593
vt 0.151553 0.200563
vt 0.226315 0.863619
vt 0.264827 0.842739
vt 0.689677 0.741007
vt 0.275093 0.837171
vt 0.264827 0.842739
vt 0.202709 0.147667
vt 0.275093 0.837171
vt 0.311923 0.817161
vt 0.804633 0.678599
vt 0.320449 0.812521
vt 0.251545 0.097033
vt 0.351421 0.795759
vt 0.899927 0.626863
vt 0.110431 0.517707
vt 0.114607 0.510863
vt 0.055389 0.472061
vt 0.119711 0.921503
vt 0.085143 0.940295
vt 0.245281 0.982229
vt 0.164255 0.897375
vt 0.174115 0.891981
vt 0.108865 0.244817
vt 0.164255 0.897375
vt 0.129571 0.916167
vt 0.355017 0.922721
vt 0.208451 0.873363
vt 0.218253 0.868027
vt 0.154511 0.197547
vt 0.208451 0.873363
vt 0.465217 0.862865
vt 0.357627 0.792337
vt 0.351421 0.795759
vt 0.292725 0.054461
vt 0.357627 0.792337
vt 0.379609 0.780389
vt 0.969295 0.589163
vt 0.288085 0.654181
vt 0.292841 0.647627
vt 0.277007 0.022039
vt 0.288085 0.654181
vt 0.271207 0.677439
vt 0.886123 0.631213
vt 0.264653 0.686429
vt 0.251777 0.056781
vt 0.240815 0.719199
vt 0.805793 0.683413
vt 0.232927 0.730103
vt 0.216223 0.105733
vt 0.232927 0.730103
vt 0.204681 0.769021
vt 0.708759 0.746401
vt 0.196213 0.780621
vt 0.204681 0.769021
vt 0.173999 0.163849
vt 0.196213 0.780621
vt 0.166691 0.821279
vt 0.605287 0.813623
vt 0.158397 0.832647
vt 0.166691 0.821279
vt 0.129861 0.224575
vt 0.158397 0.832647
vt 0.129165 0.872899
vt 0.503903 0.879453
vt 0.121625 0.883281
vt 0.129165 0.872899
vt 0.086187 0.284721
vt 0.121625 0.883281
vt 0.095467 0.919299
vt 0.411509 0.939483
vt 0.089203 0.927941
vt 0.095467 0.919299
vt 0.047153 0.338487
vt 0.089203 0.927941
vt 0.066873 0.958623
vt 0.334485 0.989421
vt 0.074413 0.948183
vt 0.066873 0.958623
vt 0.013803 0.384365
vt 0.074413 0.948183
vt 0.101093 0.911527
vt 0.427401 0.929159
vt 0.108749 0.901029
vt 0.101093 0.911527
vt 0.053649 0.329497
vt 0.108749 0.901029
vt 0.135545 0.864141
vt 0.520897 0.868433
vt 0.143085 0.853701
vt 0.135545 0.864141
vt 0.093669 0.274455
vt 0.143085 0.853701
vt 0.169649 0.817161
vt 0.613639 0.808229
vt 0.251545 0.849931
vt 0.260999 0.844827
vt 0.198765 0.151727
vt 0.251545 0.849931
vt 0.574431 0.803589
vt 0.176957 0.807069
vt 0.169649 0.817161
vt 0.133283 0.219877
vt 0.176957 0.807069
vt 0.202767 0.771631
vt 0.703597 0.749765
vt 0.292377 0.827775
vt 0.301309 0.822961
vt 0.240351 0.108633
vt 0.292377 0.827775
vt 0.260999 0.844827
vt 0.680397 0.746053
vt 0.209669 0.762119
vt 0.202767 0.771631
vt 0.171795 0.166923
vt 0.209669 0.762119
vt 0.233913 0.728769
vt 0.788335 0.694723
vt 0.329381 0.807707
vt 0.337385 0.803357
vt 0.277703 0.070005
vt 0.329381 0.807707
vt 0.301309 0.822961
vt 0.780099 0.691939
vt 0.240061 0.720243
vt 0.233913 0.728769
vt 0.207987 0.117101
vt 0.240061 0.720243
vt 0.261811 0.690315
vt 0.864373 0.645365
vt 0.359715 0.791235
vt 0.366501 0.787523
vt 0.307399 0.039265
vt 0.359715 0.791235
vt 0.337385 0.803357
vt 0.869593 0.643335
vt 0.394051 0.599487
vt 0.390223 0.606041
vt 0.117101 0.015253
vt 0.394051 0.599487
vt 0.406927 0.577621
vt 0.824121 0.972543
vt 0.375723 0.630633
vt 0.371663 0.637535
vt 0.097091 0.022909
vt 0.375723 0.630633
vt 0.739325 0.973297
vt 0.356815 0.662765
vt 0.352639 0.669841
vt 0.076559 0.030797
vt 0.356815 0.662765
vt 0.649367 0.974051
vt 0.337965 0.694781
vt 0.333789 0.701857
vt 0.056259 0.038627
vt 0.337965 0.694781
vt 0.557089 0.974863
vt 0.319753 0.725695
vt 0.315809 0.732423
vt 0.036829 0.046051
vt 0.319753 0.725695
vt 0.465681 0.975675
vt 0.302875 0.754289
vt 0.299221 0.760495
vt 0.018965 0.052895
vt 0.302875 0.754289
vt 0.378217 0.976429
vt 0.287969 0.779577
vt 0.284779 0.785029
vt 0.003421 0.058869
vt 0.287969 0.779577
vt 0.297829 0.977125
vt 0.297075 0.764207
vt 0.300497 0.758407
vt 0.020357 0.052373
vt 0.297075 0.764207
vt 0.284779 0.785029
vt 0.227591 0.977763
vt 0.315403 0.733061
vt 0.319579 0.725985
vt 0.040947 0.044485
vt 0.315403 0.733061
vt 0.300497 0.758407
vt 0.303339 0.977125
vt 0.336051 0.698029
vt 0.340633 0.690199
vt 0.063741 0.035727
vt 0.336051 0.698029
vt 0.319579 0.725985
vt 0.395443 0.976313
vt 0.357569 0.661489
vt 0.362325 0.653427
vt 0.087173 0.026737
vt 0.357569 0.661489
vt 0.340633 0.690199
vt 0.497059 0.975385
vt 0.378623 0.625761
vt 0.383147 0.617989
vt 0.109735 0.018095
vt 0.378623 0.625761
vt 0.362325 0.653427
vt 0.601401 0.974515
vt 0.397763 0.593281
vt 0.401823 0.586379
vt 0.129861 0.010323
vt 0.397763 0.593281
vt 0.383147 0.617989
vt 0.701741 0.973587
vt 0.413539 0.566485
vt 0.416787 0.560917
vt 0.146101 0.004117
vt 0.413539 0.566485
vt 0.401823 0.586379
vt 0.791235 0.972833
vt 0.211293 0.465391
vt 0.221501 0.475251
vt 0.600357 0.234609
vt 0.211293 0.465391
vt 0.174579 0.429953
vt 0.031145 0.584813
vt 0.266683 0.518925
vt 0.279327 0.531105
vt 0.647279 0.279907
vt 0.266683 0.518925
vt 0.221501 0.475251
vt 0.075979 0.628081
vt 0.329787 0.579825
vt 0.343881 0.593397
vt 0.699595 0.330483
vt 0.329787 0.579825
vt 0.279327 0.531105
vt 0.131369 0.681615
vt 0.396197 0.643973
vt 0.410813 0.658067
vt 0.753883 0.382915
vt 0.396197 0.643973
vt 0.343881 0.593397
vt 0.193255 0.741413
vt 0.461679 0.707193
vt 0.475947 0.720939
vt 0.806663 0.433839
vt 0.461679 0.707193
vt 0.257577 0.803473
vt 0.521999 0.765425
vt 0.534875 0.777895
vt 0.854397 0.479949
vt 0.521999 0.765425
vt 0.475947 0.720939
vt 0.320101 0.863909
vt 0.572749 0.814435
vt 0.583363 0.824701
vt 0.893663 0.517939
vt 0.572749 0.814435
vt 0.534875 0.777895
vt 0.376767 0.918603
vt 0.549955 0.792453
vt 0.540501 0.783289
vt 0.859037 0.484415
vt 0.549955 0.792453
vt 0.583363 0.824701
vt 0.423457 0.963669
vt 0.501699 0.745821
vt 0.490737 0.735265
vt 0.818785 0.445555
vt 0.501699 0.745821
vt 0.540501 0.783289
vt 0.381871 0.923591
vt 0.448165 0.694143
vt 0.436159 0.682543
vt 0.774647 0.402925
vt 0.448165 0.694143
vt 0.490737 0.735265
vt 0.333731 0.877017
vt 0.391383 0.639333
vt 0.378797 0.627095
vt 0.728247 0.358091
vt 0.391383 0.639333
vt 0.436159 0.682543
vt 0.280893 0.826035
vt 0.333441 0.583363
vt 0.320681 0.571009
vt 0.681209 0.312677
vt 0.333441 0.583363
vt 0.378797 0.627095
vt 0.225445 0.772443
vt 0.276369 0.528205
vt 0.263899 0.516141
vt 0.635273 0.268307
vt 0.276369 0.528205
vt 0.320681 0.571009
vt 0.169301 0.718213
vt 0.224285 0.477919
vt 0.212511 0.466551
vt 0.594151 0.228635
vt 0.263899 0.516141
vt 0.114433 0.665259
vt 0.267089 0.683123
vt 0.261811 0.690315
vt 0.240467 0.072383
vt 0.267089 0.683123
vt 0.284547 0.659053
vt 0.928579 0.603663
vt 0.245281 0.982229
vt 0.336979 0.932523
vt 0.055621 0.299975
vt 0.016819 0.340111
vt 0.336979 0.932523
vt 0.446715 0.872957
vt 0.100977 0.252995
vt 0.055621 0.299975
vt 0.446715 0.872957
vt 0.566949 0.807649
vt 0.151553 0.200563
vt 0.100977 0.252995
vt 0.566949 0.807649
vt 0.689677 0.741007
vt 0.202709 0.147667
vt 0.804633 0.678599
vt 0.202709 0.147667
vt 0.292725 0.054461
vt 0.716705 0.905205
vt 0.245281 0.982229
vt 0.355017 0.922721
vt 0.119711 0.921503
vt 0.016819 0.340111
vt 0.062813 0.292493
vt 0.355017 0.922721
vt 0.062813 0.292493
vt 0.108865 0.244817
vt 0.465217 0.862865
vt 0.154511 0.197547
vt 0.899927 0.626863
vt 0.969295 0.589163
vt 0.321899 0.024185
vt 0.944761 0.593165
vt 0.886123 0.631213
vt 0.277007 0.022039
vt 0.708759 0.746401
vt 0.173999 0.163849
vt 0.216223 0.105733
vt 0.605287 0.813623
vt 0.129861 0.224575
vt 0.173999 0.163849
vt 0.605287 0.813623
vt 0.503903 0.879453
vt 0.086187 0.284721
vt 0.503903 0.879453
vt 0.411509 0.939483
vt 0.047153 0.338487
vt 0.086187 0.284721
vt 0.411509 0.939483
vt 0.334485 0.989421
vt 0.013803 0.384365
vt 0.047153 0.338487
vt 0.334485 0.989421
vt 0.427401 0.929159
vt 0.053649 0.329497
vt 0.013803 0.384365
vt 0.427401 0.929159
vt 0.520897 0.868433
vt 0.093669 0.274455
vt 0.053649 0.329497
vt 0.520897 0.868433
vt 0.613639 0.808229
vt 0.133283 0.219877
vt 0.093669 0.274455
vt 0.680397 0.746053
vt 0.574431 0.803589
vt 0.198765 0.151727
vt 0.613639 0.808229
vt 0.703597 0.749765
vt 0.171795 0.166923
vt 0.133283 0.219877
vt 0.780099 0.691939
vt 0.240351 0.108633
vt 0.788335 0.694723
vt 0.207987 0.117101
vt 0.869593 0.643335
vt 0.277703 0.070005
vt 0.864373 0.645365
vt 0.240467 0.072383
vt 0.945109 0.602329
vt 0.277703 0.070005
vt 0.307399 0.039265
vt 0.824121 0.972543
vt 0.134965 0.008409
vt 0.117101 0.015253
vt 0.739325 0.973297
vt 0.097091 0.022909
vt 0.649367 0.974051
vt 0.076559 0.030797
vt 0.557089 0.974863
vt 0.056259 0.038627
vt 0.465681 0.975675
vt 0.036829 0.046051
vt 0.378217 0.976429
vt 0.018965 0.052895
vt 0.227591 0.977763
vt 0.297829 0.977125
vt 0.003421 0.058869
vt 0.303339 0.977125
vt 0.227591 0.977763
vt 0.003421 0.058869
vt 0.020357 0.052373
vt 0.395443 0.976313
vt 0.303339 0.977125
vt 0.020357 0.052373
vt 0.040947 0.044485
vt 0.497059 0.975385
vt 0.395443 0.976313
vt 0.040947 0.044485
vt 0.063741 0.035727
vt 0.601401 0.974515
vt 0.497059 0.975385
vt 0.063741 0.035727
vt 0.087173 0.026737
vt 0.701741 0.973587
vt 0.601401 0.974515
vt 0.087173 0.026737
vt 0.109735 0.018095
vt 0.791235 0.972833
vt 0.701741 0.973587
vt 0.109735 0.018095
vt 0.129861 0.010323
vt 0.863213 0.972195
vt 0.791235 0.972833
vt 0.129861 0.010323
vt 0.146101 0.004117
vt 0.075979 0.628081
vt 0.031145 0.584813
vt 0.562309 0.197895
vt 0.600357 0.234609
vt 0.131369 0.681615
vt 0.075979 0.628081
vt 0.600357 0.234609
vt 0.647279 0.279907
vt 0.193255 0.741413
vt 0.131369 0.681615
vt 0.647279 0.279907
vt 0.699595 0.330483
vt 0.193255 0.741413
vt 0.699595 0.330483
vt 0.753883 0.382915
vt 0.320101 0.863909
vt 0.257577 0.803473
vt 0.806663 0.433839
vt 0.376767 0.918603
vt 0.320101 0.863909
vt 0.806663 0.433839
vt 0.854397 0.479949
vt 0.423457 0.963669
vt 0.376767 0.918603
vt 0.854397 0.479949
vt 0.893663 0.517939
vt 0.381871 0.923591
vt 0.423457 0.963669
vt 0.893663 0.517939
vt 0.859037 0.484415
vt 0.333731 0.877017
vt 0.381871 0.923591
vt 0.859037 0.484415
vt 0.818785 0.445555
vt 0.280893 0.826035
vt 0.333731 0.877017
vt 0.818785 0.445555
vt 0.774647 0.402925
vt 0.225445 0.772443
vt 0.280893 0.826035
vt 0.774647 0.402925
vt 0.728247 0.358091
vt 0.169301 0.718213
vt 0.225445 0.772443
vt 0.728247 0.358091
vt 0.681209 0.312677
vt 0.114433 0.665259
vt 0.169301 0.718213
vt 0.681209 0.312677
vt 0.635273 0.268307
vt 0.062755 0.615379
vt 0.928579 0.603663
vt 0.266509 0.036481
vt 0.240467 0.072383
f 3/3 2/2 1/1
f 6/6 5/5 4/4
f 9/9 8/8 7/7
f 12/12 11/11 10/10
f 15/15 14/14 13/13
f 18/18 17/17 16/16
f 21/21 20/20 19/19
f 24/24 23/23 22/22
f 27/27 26/26 25/25
f 30/30 29/29 28/28
f 32/32 29/29 31/31
f 34/34 33/33 31/31
f 37/37 36/36 35/35
f 40/40 39/39 38/38
f 43/43 42/42 41/41
f 46/46 45/45 44/44
f 49/49 48/48 47/47
f 51/51 42/42 50/50
f 54/54 53/53 52/52
f 57/57 56/56 55/55
f 60/60 59/59 58/58
f 63/63 62/62 61/61
f 65/65 62/62 64/64
f 67/67 66/66 64/64
f 69/69 66/66 68/68
f 72/72 71/71 70/70
f 75/75 74/74 73/73
f 78/78 77/77 76/76
f 81/81 80/80 79/79
f 84/84 83/83 82/82
f 87/87 86/86 85/85
f 90/90 89/89 88/88
f 93/93 92/92 91/91
f 96/96 95/95 94/94
f 99/99 98/98 97/97
f 102/102 101/101 100/100
f 105/105 104/104 103/103
f 108/108 107/107 106/106
f 111/111 110/110 109/109
f 114/114 113/113 112/112
f 117/117 116/116 115/115
f 119/119 48/48 118/118
f 122/122 121/121 120/120
f 125/125 124/124 123/123
f 128/128 127/127 126/126
f 131/131 130/130 129/129
f 134/134 133/133 132/132
f 137/137 136/136 135/135
f 140/140 139/139 138/138
f 143/143 142/142 141/141
f 146/146 145/145 144/144
f 149/149 148/148 147/147
f 152/152 151/151 150/150
f 155/155 154/154 153/153
f 158/158 157/157 156/156
f 161/161 160/160 159/159
f 164/164 163/163 162/162
f 166/166 157/157 165/165
f 169/169 168/168 167/167
f 171/171 163/163 170/170
f 174/174 173/173 172/172
f 176/176 168/168 175/175
f 179/179 178/178 177/177
f 181/181 173/173 180/180
f 184/184 183/183 182/182
f 186/186 178/178 185/185
f 189/189 188/188 187/187
f 191/191 183/183 190/190
f 194/194 193/193 192/192
f 197/197 196/196 195/195
f 200/200 199/199 198/198
f 203/203 202/202 201/201
f 206/206 205/205 204/204
f 209/209 208/208 207/207
f 212/212 211/211 210/210
f 215/215 214/214 213/213
f 218/218 217/217 216/216
f 221/221 220/220 219/219
f 224/224 223/223 222/222
f 227/227 226/226 225/225
f 230/230 229/229 228/228
f 233/233 232/232 231/231
f 236/236 235/235 234/234
f 239/239 238/238 237/237
f 242/242 241/241 240/240
f 245/245 244/244 243/243
f 248/248 247/247 246/246
f 251/251 250/250 249/249
f 254/254 253/253 252/252
f 257/257 256/256 255/255
f 260/260 259/259 258/258
f 262/262 253/253 261/261
f 265/265 264/264 263/263
f 268/268 267/267 266/266
f 271/271 270/270 269/269
f 274/274 273/273 272/272
f 277/277 276/276 275/275
f 280/280 279/279 278/278
f 283/283 282/282 281/281
f 286/286 285/285 284/284
f 289/289 288/288 287/287
f 292/292 291/291 290/290
f 295/295 294/294 293/293
f 298/298 297/297 296/296
f 301/301 300/300 299/299
f 304/304 303/303 302/302
f 307/307 306/306 305/305
f 310/310 309/309 308/308
f 313/313 312/312 311/311
f 315/315 314/314 311/311
f 318/318 317/317 316/316
f 321/321 320/320 319/319
f 2/2 322/322 1/1
f 1/1 322/322 323/323
f 5/5 324/324 4/4
f 4/4 324/324 325/325
f 8/8 326/326 7/7
f 7/7 326/326 327/327
f 11/11 328/328 10/10
f 10/10 328/328 329/329
f 14/14 330/330 13/13
f 13/13 330/330 331/331
f 17/17 332/332 16/16
f 16/16 332/332 333/333
f 20/20 334/334 19/19
f 19/19 334/334 335/335
f 23/23 336/336 22/22
f 22/22 336/336 332/332
f 26/26 335/335 25/25
f 25/25 335/335 337/337
f 29/29 32/32 28/28
f 28/28 32/32 338/338
f 29/29 30/30 31/31
f 31/31 30/30 34/34
f 33/33 339/339 31/31
f 31/31 339/339 32/32
f 36/36 340/340 35/35
f 343/343 342/342 341/341
f 39/39 344/344 38/38
f 38/38 344/344 345/345
f 42/42 51/51 41/41
f 41/41 51/51 346/346
f 45/45 347/347 44/44
f 44/44 347/347 348/348
f 48/48 119/119 47/47
f 47/47 119/119 349/349
f 42/42 43/43 50/50
f 50/50 43/43 350/350
f 53/53 351/351 52/52
f 52/52 351/351 352/352
f 56/56 353/353 55/55
f 55/55 353/353 339/339
f 59/59 354/354 58/58
f 58/58 354/354 355/355
f 62/62 65/65 61/61
f 61/61 65/65 356/356
f 62/62 63/63 64/64
f 64/64 63/63 67/67
f 66/66 69/69 64/64
f 64/64 69/69 65/65
f 66/66 67/67 68/68
f 68/68 67/67 357/357
f 71/71 358/358 70/70
f 70/70 358/358 359/359
f 74/74 357/357 73/73
f 73/73 357/357 360/360
f 77/77 361/361 76/76
f 76/76 361/361 362/362
f 80/80 363/363 79/79
f 79/79 363/363 364/364
f 83/83 365/365 82/82
f 82/82 365/365 361/361
f 86/86 366/366 85/85
f 85/85 366/366 367/367
f 89/89 368/368 88/88
f 88/88 368/368 369/369
f 92/92 370/370 91/91
f 91/91 370/370 371/371
f 95/95 372/372 94/94
f 94/94 372/372 373/373
f 98/98 374/374 97/97
f 97/97 374/374 375/375
f 101/101 376/376 100/100
f 100/100 376/376 377/377
f 104/104 378/378 103/103
f 103/103 378/378 379/379
f 107/107 380/380 106/106
f 106/106 380/380 381/381
f 110/110 382/382 109/109
f 109/109 382/382 383/383
f 113/113 384/384 112/112
f 112/112 384/384 385/385
f 116/116 386/386 115/115
f 115/115 386/386 387/387
f 48/48 49/49 118/118
f 118/118 49/49 388/388
f 121/121 389/389 120/120
f 120/120 389/389 390/390
f 124/124 391/391 123/123
f 123/123 391/391 392/392
f 127/127 393/393 126/126
f 126/126 393/393 386/386
f 130/130 388/388 129/129
f 129/129 388/388 394/394
f 133/133 390/390 132/132
f 132/132 390/390 395/395
f 136/136 396/396 135/135
f 135/135 396/396 391/391
f 139/139 397/397 138/138
f 138/138 397/397 393/393
f 142/142 394/394 141/141
f 141/141 394/394 398/398
f 145/145 395/395 144/144
f 144/144 395/395 399/399
f 148/148 400/400 147/147
f 147/147 400/400 396/396
f 151/151 401/401 150/150
f 150/150 401/401 397/397
f 154/154 402/402 153/153
f 153/153 402/402 403/403
f 157/157 166/166 156/156
f 156/156 166/166 404/404
f 160/160 405/405 159/159
f 159/159 405/405 406/406
f 163/163 171/171 162/162
f 162/162 171/171 407/407
f 157/157 158/158 165/165
f 165/165 158/158 408/408
f 168/168 176/176 167/167
f 167/167 176/176 409/409
f 163/163 164/164 170/170
f 170/170 164/164 410/410
f 173/173 181/181 172/172
f 172/172 181/181 411/411
f 168/168 169/169 175/175
f 175/175 169/169 412/412
f 178/178 186/186 177/177
f 177/177 186/186 413/413
f 173/173 174/174 180/180
f 180/180 174/174 414/414
f 183/183 191/191 182/182
f 182/182 191/191 415/415
f 178/178 179/179 185/185
f 185/185 179/179 416/416
f 188/188 417/417 187/187
f 187/187 417/417 418/418
f 183/183 184/184 190/190
f 190/190 184/184 419/419
f 193/193 420/420 192/192
f 192/192 420/420 421/421
f 196/196 422/422 195/195
f 195/195 422/422 423/423
f 199/199 424/424 198/198
f 198/198 424/424 425/425
f 202/202 426/426 201/201
f 201/201 426/426 427/427
f 205/205 428/428 204/204
f 204/204 428/428 429/429
f 208/208 430/430 207/207
f 207/207 430/430 431/431
f 211/211 432/432 210/210
f 210/210 432/432 433/433
f 214/214 434/434 213/213
f 213/213 434/434 435/435
f 217/217 436/436 216/216
f 216/216 436/436 437/437
f 220/220 438/438 219/219
f 219/219 438/438 439/439
f 223/223 440/440 222/222
f 222/222 440/440 441/441
f 226/226 442/442 225/225
f 225/225 442/442 443/443
f 229/229 444/444 228/228
f 228/228 444/444 445/445
f 232/232 446/446 231/231
f 231/231 446/446 447/447
f 235/235 448/448 234/234
f 234/234 448/448 449/449
f 238/238 450/450 237/237
f 237/237 450/450 451/451
f 241/241 452/452 240/240
f 240/240 452/452 453/453
f 244/244 454/454 243/243
f 243/243 454/454 455/455
f 247/247 456/456 246/246
f 246/246 456/456 457/457
f 250/250 458/458 249/249
f 249/249 458/458 459/459
f 253/253 262/262 252/252
f 252/252 262/262 460/460
f 256/256 461/461 255/255
f 255/255 461/461 462/462
f 259/259 463/463 258/258
f 258/258 463/463 464/464
f 253/253 254/254 261/261
f 261/261 254/254 465/465
f 264/264 466/466 263/263
f 263/263 466/466 467/467
f 267/267 468/468 266/266
f 266/266 468/468 469/469
f 270/270 470/470 269/269
f 269/269 470/470 471/471
f 273/273 472/472 272/272
f 272/272 472/472 473/473
f 276/276 474/474 275/275
f 275/275 474/474 475/475
f 279/279 476/476 278/278
f 278/278 476/476 477/477
f 282/282 478/478 281/281
f 281/281 478/478 479/479
f 285/285 480/480 284/284
f 284/284 480/480 481/481
f 288/288 482/482 287/287
f 287/287 482/482 483/483
f 291/291 484/484 290/290
f 290/290 484/484 485/485
f 294/294 486/486 293/293
f 293/293 486/486 487/487
f 297/297 488/488 296/296
f 296/296 488/488 489/489
f 300/300 490/490 299/299
f 299/299 490/490 491/491
f 303/303 492/492 302/302
f 302/302 492/492 493/493
f 306/306 494/494 305/305
f 305/305 494/494 495/495
f 309/309 496/496 308/308
f 308/308 496/496 497/497
f 312/312 498/498 311/311
f 311/311 498/498 315/315
f 314/314 497/497 311/311
f 311/311 497/497 313/313
f 317/317 399/399 316/316
f 316/316 399/399 499/499
f 320/320 500/500 319/319
f 319/319 500/500 501/501
