# auto-generated
# extracted from scene_data.h: position palette and position animations
# v x y z     palette point
# o / l       one path per animation, 30 palette points in time order
v -0.032316 0.288759 24.823224
v -0.032316 0.288759 24.803704
v -0.032316 0.288759 24.186384
v -0.032316 0.288759 23.569064
v -0.032316 0.288759 23.332384
v -0.032316 0.288759 23.046904
v -0.032316 0.288759 21.341344
v -0.032316 0.288759 19.633344
v -0.032316 0.288759 19.030664
v -0.032316 0.288759 18.798864
v -0.032316 0.288759 18.564624
v -0.032316 0.288759 19.425944
v -0.032316 0.288759 19.550384
v -0.002011 -0.003271 -22.783616
v -0.002011 -0.003271 -22.734816
v -0.002011 -0.003271 -21.326936
v -0.002011 -0.003271 -19.919056
v -0.002011 -0.003271 -19.377376
v -0.002011 -0.003271 -19.196816
v -0.002011 -0.003271 -18.115896
v -0.002011 -0.003271 -17.034976
v -0.002011 -0.003271 -16.320056
v -0.002011 -0.003271 -16.620176
v -0.002011 -0.003271 -16.922736
v -0.002011 -0.003271 -17.222856
v -0.002011 -0.003271 -17.259456
v -0.002011 -0.000516 -38.875416
v -0.002011 -0.000516 -38.238576
v -0.002011 -0.000516 -37.601736
v -0.002011 -0.000516 -36.964896
v -0.002011 -0.000516 -36.328056
v -0.002011 -0.000516 -35.691216
v -0.002011 -0.000516 -35.488696
v -44.754231 44.589159 -26.821816
v -43.630191 43.462364 -26.821816
v -42.503396 42.338324 -26.821816
v -41.379356 41.214284 -26.821816
v -40.255316 40.087489 -26.821816
v -39.128521 38.963449 -26.821816
v -38.004481 37.839409 -26.821816
v -36.880441 36.712614 -26.821816
v -35.753646 35.588574 -26.821816
v -34.629606 34.464534 -26.821816
v -33.505566 33.337739 -26.821816
v -32.378771 32.213699 -26.821816
v -31.254731 31.089659 -26.821816
v -30.130691 29.962864 -26.821816
v -29.003896 28.838824 -26.821816
v -28.984611 28.819539 -26.821816
v 45.028464 44.740684 -26.821816
v 43.860344 43.572564 -26.821816
v 42.692224 42.404444 -26.821816
v 41.524104 41.236324 -26.821816
v 40.355984 40.068204 -26.821816
v 39.187864 38.902839 -26.821816
v 38.019744 37.734719 -26.821816
v 36.851624 36.566599 -26.821816
v 35.683504 35.398479 -26.821816
v 34.515384 34.230359 -26.821816
v 33.350019 33.062239 -26.821816
v 32.181899 31.894119 -26.821816
v 31.013779 30.725999 -26.821816
v 29.845659 29.557879 -26.821816
v 28.677539 28.389759 -26.821816
v 28.655499 28.370474 -26.821816
v -45.192276 -45.482811 -26.821816
v -43.982831 -44.276121 -26.821816
v -42.776141 -43.066676 -26.821816
v -41.569451 -41.859986 -26.821816
v -40.360006 -40.653296 -26.821816
v -39.153316 -39.443851 -26.821816
v -37.943871 -38.237161 -26.821816
v -36.737181 -37.027716 -26.821816
v -35.530491 -35.821026 -26.821816
v -34.321046 -34.614336 -26.821816
v -33.114356 -33.404891 -26.821816
v -31.907666 -32.198201 -26.821816
v -30.698221 -30.991511 -26.821816
v -29.491531 -29.782066 -26.821816
v -28.282086 -28.575376 -26.821816
v -28.260046 -28.553336 -26.821816
v 45.028464 -45.190781 -26.821816
v 43.841059 -44.000621 -26.821816
v 42.650899 -42.813216 -26.821816
v 41.463494 -41.625811 -26.821816
v 40.273334 -40.435651 -26.821816
v 39.085929 -39.248246 -26.821816
v 37.898524 -38.060841 -26.821816
v 36.708364 -36.870681 -26.821816
v 35.520959 -35.683276 -26.821816
v 34.330799 -34.493116 -26.821816
v 33.143394 -33.305711 -26.821816
v 31.955989 -32.118306 -26.821816
v 30.765829 -30.928146 -26.821816
v 29.578424 -29.740741 -26.821816
v 28.388264 -28.550581 -26.821816
v 28.368979 -28.531296 -26.821816
v -44.754231 44.589159 28.185544
v -44.098541 43.933469 28.185544
v -42.974501 42.806674 28.185544
v -41.847706 41.682634 28.185544
v -40.723666 40.558594 28.185544
v -39.599626 39.431799 28.185544
v -38.472831 38.307759 28.185544
v -37.348791 37.183719 28.185544
v -36.224751 36.056924 28.185544
v -35.097956 34.932884 28.185544
v -33.973916 33.808844 28.185544
v -32.849876 32.682049 28.185544
v -31.723081 31.558009 28.185544
v -30.599041 30.433969 28.185544
v -29.472246 29.307174 28.185544
v -28.984611 28.819539 28.185544
v -45.192276 -45.482811 28.185544
v -44.486996 -44.777531 28.185544
v -43.280306 -43.570841 28.185544
v -42.070861 -42.364151 28.185544
v -40.864171 -41.154706 28.185544
v -39.657481 -39.948016 28.185544
v -38.448036 -38.741326 28.185544
v -37.241346 -37.531881 28.185544
v -36.031901 -36.325191 28.185544
v -34.825211 -35.118501 28.185544
v -33.618521 -33.909056 28.185544
v -32.409076 -32.702366 28.185544
v -31.202386 -31.492921 28.185544
v -29.995696 -30.286231 28.185544
v -28.786251 -29.079541 28.185544
v -28.260046 -28.553336 28.185544
v 45.028464 -45.190781 28.185544
v 44.367264 -44.526826 28.185544
v 43.229449 -43.391766 28.185544
v 42.094389 -42.256706 28.185544
v 40.956574 -41.118891 28.185544
v 39.821514 -39.983831 28.185544
v 38.686454 -38.846016 28.185544
v 37.548639 -37.710956 28.185544
v 36.413579 -36.575896 28.185544
v 35.275764 -35.438081 28.185544
v 34.140704 -34.303021 28.185544
v 33.002889 -33.165206 28.185544
v 31.867829 -32.030146 28.185544
v 30.732769 -30.895086 28.185544
v 29.594954 -29.757271 28.185544
v 29.101809 -29.264126 28.185544
v 45.031219 44.737929 28.185544
v 44.350734 44.054689 28.185544
v 43.182614 42.886569 28.185544
v 42.014494 41.721204 28.185544
v 40.846374 40.553084 28.185544
v 39.678254 39.384964 28.185544
v 38.512889 38.216844 28.185544
v 37.344769 37.048724 28.185544
v 36.176649 35.880604 28.185544
v 35.008529 34.712484 28.185544
v 33.840409 33.544364 28.185544
v 32.672289 32.376244 28.185544
v 31.504169 31.208124 28.185544
v 30.336049 30.040004 28.185544
v 29.167929 28.874639 28.185544
v 28.661009 28.364964 28.185544
v -0.002011 -0.000516 41.032144
v -0.002011 -0.000516 40.326984
v -0.002011 -0.000516 39.619384
v -0.002011 -0.000516 38.914224
v -0.002011 -0.000516 38.209064
v -0.002011 -0.000516 37.621024
v -0.018541 -0.000516 -27.031656
v -0.018541 -0.000516 -26.985296
v -0.018541 -0.000516 -25.577416
v -0.018541 -0.000516 -24.167096
v -0.018541 -0.000516 -23.627856
v -0.018541 -0.000516 -23.447296
v -0.018541 -0.000516 -22.366376
v -0.018541 -0.000516 -21.283016
v -0.018541 -0.000516 -20.570536
v -0.018541 -0.000516 -20.870656
v -0.018541 -0.000516 -21.170776
v -0.018541 -0.000516 -21.473336
v -0.018541 -0.000516 -21.507496
v -0.018541 -0.000516 29.137144
v -0.018541 -0.000516 29.117624
v -0.018541 -0.000516 28.500304
v -0.018541 -0.000516 27.882984
v -0.018541 -0.000516 27.643864
v -0.018541 -0.000516 27.360824
v -0.018541 -0.000516 25.655264
v -0.018541 -0.000516 23.947264
v -0.018541 -0.000516 23.344584
v -0.018541 -0.000516 23.110344
v -0.018541 -0.000516 22.878544
v -0.018541 -0.000516 23.739864
v -0.018541 -0.000516 23.864304
v -10.517846 -0.014291 -19.601856
v -10.517846 -0.014291 -18.967456
v -10.517846 -0.014291 -18.335496
v -10.517846 -0.014291 -17.701096
v -10.517846 -0.014291 -17.069136
v -10.517846 -0.014291 -16.434736
v -10.517846 -0.014291 -16.234656
v -7.426736 -7.447281 -19.601856
v -7.426736 -7.447281 -18.967456
v -7.426736 -7.447281 -18.335496
v -7.426736 -7.447281 -17.701096
v -7.426736 -7.447281 -17.069136
v -7.426736 -7.447281 -16.434736
v -7.426736 -7.447281 -16.234656
v 0.011764 -10.516351 -19.601856
v 0.011764 -10.516351 -18.967456
v 0.011764 -10.516351 -18.335496
v 0.011764 -10.516351 -17.701096
v 0.011764 -10.516351 -17.069136
v 0.011764 -10.516351 -16.434736
v 0.011764 -10.516351 -16.234656
v 7.447509 -7.427996 -19.601856
v 7.447509 -7.427996 -18.967456
v 7.447509 -7.427996 -18.335496
v 7.447509 -7.427996 -17.701096
v 7.447509 -7.427996 -17.069136
v 7.447509 -7.427996 -16.434736
v 7.447509 -7.427996 -16.234656
v 10.516579 0.013259 -19.601856
v 10.516579 0.013259 -18.967456
v 10.516579 0.013259 -18.335496
v 10.516579 0.013259 -17.701096
v 10.516579 0.013259 -17.069136
v 10.516579 0.013259 -16.434736
v 10.516579 0.013259 -16.234656
v 7.428224 7.446249 -19.601856
v 7.428224 7.446249 -18.967456
v 7.428224 7.446249 -18.335496
v 7.428224 7.446249 -17.701096
v 7.428224 7.446249 -17.069136
v 7.428224 7.446249 -16.434736
v 7.428224 7.446249 -16.234656
v -0.015786 10.518074 -19.601856
v -0.015786 10.518074 -18.967456
v -0.015786 10.518074 -18.335496
v -0.015786 10.518074 -17.701096
v -0.015786 10.518074 -17.069136
v -0.015786 10.518074 -16.434736
v -0.015786 10.518074 -16.234656
v -7.446021 7.426964 -19.601856
v -7.446021 7.426964 -18.967456
v -7.446021 7.426964 -18.335496
v -7.446021 7.426964 -17.701096
v -7.446021 7.426964 -17.069136
v -7.446021 7.426964 -16.434736
v -7.446021 7.426964 -16.234656
v -10.517846 -0.014291 21.531664
v -10.517846 -0.014291 20.899704
v -10.517846 -0.014291 20.267744
v -10.517846 -0.014291 19.638224
v -10.517846 -0.014291 19.006264
v -10.517846 -0.014291 18.374304
v -10.517846 -0.014291 18.174224
v -7.426736 -7.447281 21.531664
v -7.426736 -7.447281 20.899704
v -7.426736 -7.447281 20.267744
v -7.426736 -7.447281 19.638224
v -7.426736 -7.447281 19.006264
v -7.426736 -7.447281 18.374304
v -7.426736 -7.447281 18.174224
v 0.011764 -10.516351 21.531664
v 0.011764 -10.516351 20.899704
v 0.011764 -10.516351 20.267744
v 0.011764 -10.516351 19.638224
v 0.011764 -10.516351 19.006264
v 0.011764 -10.516351 18.374304
v 0.011764 -10.516351 18.174224
v 7.447509 -7.427996 21.531664
v 7.447509 -7.427996 20.899704
v 7.447509 -7.427996 20.267744
v 7.447509 -7.427996 19.638224
v 7.447509 -7.427996 19.006264
v 7.447509 -7.427996 18.374304
v 7.447509 -7.427996 18.174224
v 10.516579 0.013259 21.531664
v 10.516579 0.013259 20.899704
v 10.516579 0.013259 20.267744
v 10.516579 0.013259 19.638224
v 10.516579 0.013259 19.006264
v 10.516579 0.013259 18.374304
v 10.516579 0.013259 18.174224
v 7.428224 7.446249 21.531664
v 7.428224 7.446249 20.899704
v 7.428224 7.446249 20.267744
v 7.428224 7.446249 19.638224
v 7.428224 7.446249 19.006264
v 7.428224 7.446249 18.374304
v 7.428224 7.446249 18.174224
v -0.015786 10.518074 21.531664
v -0.015786 10.518074 20.899704
v -0.015786 10.518074 20.267744
v -0.015786 10.518074 19.638224
v -0.015786 10.518074 19.006264
v -0.015786 10.518074 18.374304
v -0.015786 10.518074 18.174224
v -7.446021 7.426964 21.531664
v -7.446021 7.426964 20.899704
v -7.446021 7.426964 20.267744
v -7.446021 7.426964 19.638224
v -7.446021 7.426964 19.006264
v -7.446021 7.426964 18.374304
v -7.446021 7.426964 18.174224
v -0.002011 -0.000516 -31.069856
v -0.002011 -0.000516 -30.533056
v -0.002011 -0.000516 -29.998696
v -0.002011 -0.000516 -29.461896
v -0.002011 -0.000516 -28.927536
v -0.002011 -0.000516 -28.742096
v -0.002011 -0.000516 -30.313456
v -0.002011 -0.000516 -31.518816
v -0.002011 -0.000516 32.792264
v -0.002011 -0.000516 32.262784
v -0.002011 -0.000516 31.730864
v -0.002011 -0.000516 31.198944
v -0.002011 -0.000516 30.879304
v -0.002011 -0.000516 31.928504
v -0.002011 -0.000516 32.767864
o pos_anim_00
l 1 2 3 4 5 6 7 8 9 10 11 12 13 13 13 13 13 13 13 13 13 13 13 13 13 13 13 13 13 13
o pos_anim_01
l 14 15 16 17 18 19 20 21 22 23 24 25 26 26 26 26 26 26 26 26 26 26 26 26 26 26 26 26 26 26
o pos_anim_02
l 27 28 29 30 31 32 33 33 33 33 33 33 33 33 33 33 33 33 33 33 33 33 33 33 33 33 33 33 33 33
o pos_anim_03
l 34 35 36 37 38 39 40 41 42 43 44 45 46 47 48 49 49 49 49 49 49 49 49 49 49 49 49 49 49 49
o pos_anim_04
l 50 51 52 53 54 55 56 57 58 59 60 61 62 63 64 65 65 65 65 65 65 65 65 65 65 65 65 65 65 65
o pos_anim_05
l 66 67 68 69 70 71 72 73 74 75 76 77 78 79 80 81 81 81 81 81 81 81 81 81 81 81 81 81 81 81
o pos_anim_06
l 82 83 84 85 86 87 88 89 90 91 92 93 94 95 96 97 97 97 97 97 97 97 97 97 97 97 97 97 97 97
o pos_anim_07
l 98 98 98 99 100 101 102 103 104 105 106 107 108 109 110 111 112 113 113 113 113 113 113 113 113 113 113 113 113 113
o pos_anim_08
l 114 114 114 115 116 117 118 119 120 121 122 123 124 125 126 127 128 129 129 129 129 129 129 129 129 129 129 129 129 129
o pos_anim_09
l 130 130 130 131 132 133 134 135 136 137 138 139 140 141 142 143 144 145 145 145 145 145 145 145 145 145 145 145 145 145
o pos_anim_10
l 146 146 146 147 148 149 150 151 152 153 154 155 156 157 158 159 160 161 161 161 161 161 161 161 161 161 161 161 161 161
o pos_anim_11
l 162 163 164 165 166 167 167 167 167 167 167 167 167 167 167 167 167 167 167 167 167 167 167 167 167 167 167 167 167 167
o pos_anim_12
l 168 169 170 171 172 173 174 175 176 177 178 179 180 180 180 180 180 180 180 180 180 180 180 180 180 180 180 180 180 180
o pos_anim_13
l 181 182 183 184 185 186 187 188 189 190 191 192 193 193 193 193 193 193 193 193 193 193 193 193 193 193 193 193 193 193
o pos_anim_14
l 194 195 196 197 198 199 200 200 200 200 200 200 200 200 200 200 200 200 200 200 200 200 200 200 200 200 200 200 200 200
o pos_anim_15
l 201 202 203 204 205 206 207 207 207 207 207 207 207 207 207 207 207 207 207 207 207 207 207 207 207 207 207 207 207 207
o pos_anim_16
l 208 209 210 211 212 213 214 214 214 214 214 214 214 214 214 214 214 214 214 214 214 214 214 214 214 214 214 214 214 214
o pos_anim_17
l 215 216 217 218 219 220 221 221 221 221 221 221 221 221 221 221 221 221 221 221 221 221 221 221 221 221 221 221 221 221
o pos_anim_18
l 222 223 224 225 226 227 228 228 228 228 228 228 228 228 228 228 228 228 228 228 228 228 228 228 228 228 228 228 228 228
o pos_anim_19
l 229 230 231 232 233 234 235 235 235 235 235 235 235 235 235 235 235 235 235 235 235 235 235 235 235 235 235 235 235 235
o pos_anim_20
l 236 237 238 239 240 241 242 242 242 242 242 242 242 242 242 242 242 242 242 242 242 242 242 242 242 242 242 242 242 242
o pos_anim_21
l 243 244 245 246 247 248 249 249 249 249 249 249 249 249 249 249 249 249 249 249 249 249 249 249 249 249 249 249 249 249
o pos_anim_22
l 250 251 252 253 254 255 256 256 256 256 256 256 256 256 256 256 256 256 256 256 256 256 256 256 256 256 256 256 256 256
o pos_anim_23
l 257 258 259 260 261 262 263 263 263 263 263 263 263 263 263 263 263 263 263 263 263 263 263 263 263 263 263 263 263 263
o pos_anim_24
l 264 265 266 267 268 269 270 270 270 270 270 270 270 270 270 270 270 270 270 270 270 270 270 270 270 270 270 270 270 270
o pos_anim_25
l 271 272 273 274 275 276 277 277 277 277 277 277 277 277 277 277 277 277 277 277 277 277 277 277 277 277 277 277 277 277
o pos_anim_26
l 278 279 280 281 282 283 284 284 284 284 284 284 284 284 284 284 284 284 284 284 284 284 284 284 284 284 284 284 284 284
o pos_anim_27
l 285 286 287 288 289 290 291 291 291 291 291 291 291 291 291 291 291 291 291 291 291 291 291 291 291 291 291 291 291 291
o pos_anim_28
l 292 293 294 295 296 297 298 298 298 298 298 298 298 298 298 298 298 298 298 298 298 298 298 298 298 298 298 298 298 298
o pos_anim_29
l 299 300 301 302 303 304 305 305 305 305 305 305 305 305 305 305 305 305 305 305 305 305 305 305 305 305 305 305 305 305
o pos_anim_30
l 306 307 308 309 310 311 312 313 313 313 313 313 313 313 313 313 313 313 313 313 313 313 313 313 313 313 313 313 313 313
o pos_anim_31
l 314 315 316 317 318 319 320 320 320 320 320 320 320 320 320 320 320 320 320 320 320 320 320 320 320 320 320 320 320 320
