# auto-generated
# extracted from scene_data.h: rotation palette and rotation animations
# v x y z w   quaternion xyz as stored; only the sign of w is stored, |w| is derived
# o / l       one path per animation, 30 palette entries in time order
v 0.00000000 1.00000000 0.00000000 0.00000000
v 0.27059542 -0.65325191 -0.27059542 0.65331323
v 0.00000000 0.00000000 0.00000000 1.00000000
v -0.50000000 -0.50000000 0.50000000 0.50000000
v -0.27059542 -0.65325191 0.27059542 0.65331323
v 0.50000000 -0.50000000 -0.50000000 0.50000000
v 0.00000000 0.00000000 -0.70708397 0.70712959
v -0.70708397 -0.70708397 0.00000000 0.00803245
v -0.70320611 0.70320611 0.07389313 0.07444560
v -0.38058015 0.91880916 0.09654962 0.04033169
v 0.00000000 0.99450382 0.10451908 0.00615788
v -0.91880916 0.38058015 0.04000000 0.09668751
v -0.99450382 0.00000000 0.00000000 0.10470033
v -0.38058015 -0.91880916 -0.09654962 0.04033169
v -0.70320611 -0.70320611 -0.07389313 0.07444560
v -0.91880916 -0.38058015 -0.04000000 0.09668751
v -0.49996947 -0.50000000 0.49996947 0.50006106
v 0.08308397 0.08308397 -0.70219847 0.70221892
v 0.08308397 -0.08308397 0.70219847 0.70221892
v 0.00000000 0.11752672 -0.99303817 0.00791629
v 0.11752672 0.00000000 0.00000000 0.99306972
v -0.49996947 0.49996947 0.50000000 0.50006106
v 0.50000000 -0.50000000 0.49996947 0.50003053
v 0.00000000 0.00000000 0.70708397 0.70712959
v -0.70708397 0.70708397 0.00000000 0.00803245
v -0.50000000 0.49996947 0.50000000 0.50003053
v 0.70244275 0.69398473 -0.11453435 0.10881755
v 0.70708397 -0.70708397 0.00000000 0.00803245
v 0.00000000 0.00000000 -0.70708397 -0.70712959
v 0.70708397 0.70708397 0.00000000 0.00803245
v -0.49996947 0.50000000 -0.49996947 0.50006106
v -0.50000000 -0.50000000 0.49996947 0.50003053
v 0.50000000 -0.49996947 -0.50000000 0.50003053
v 0.47770992 0.52131298 0.52131298 0.47776437
v -0.57352672 -0.57169466 -0.40970992 0.41996441
v 0.11581679 0.70116031 0.69526718 0.10753721
v 0.00000000 -0.70708397 -0.70708397 0.00803245
v 0.00000000 -0.70708397 0.70708397 0.00803245
v 0.27627481 -0.65087023 0.65087023 0.27642019
v 0.26488550 0.65560305 -0.65560305 0.26496216
v 0.65560305 -0.26488550 0.26488550 0.65563403
v 0.65087023 0.27627481 -0.27627481 0.65093195
v 0.65087023 -0.27627481 -0.27627481 -0.65093195
v -0.65560305 -0.26488550 -0.26488550 0.65563403
v 0.26488550 -0.65560305 -0.65560305 -0.26496216
v -0.27627481 -0.65087023 -0.65087023 0.27642019
v 0.41987786 0.40970992 -0.57169466 0.57359008
v 0.70708397 0.00000000 0.00000000 0.70712959
v 0.65325191 -0.27059542 0.27059542 0.65331323
v 0.49996947 0.50000000 -0.50000000 0.50003053
v 0.00000000 0.00000000 -0.00958779 0.99995404
v 0.00000000 0.00000000 -0.02406107 0.99971049
v 0.00000000 0.00000000 -0.02436641 0.99970309
v 0.00000000 0.00000000 0.00824427 0.99996602
v 0.00000000 0.00000000 0.07105344 0.99747251
v 0.00000000 0.00000000 0.15087023 0.98855358
v 0.00000000 0.00000000 0.23954198 0.97088601
v 0.00000000 0.00000000 0.32888550 0.94436981
v 0.00000000 0.00000000 0.41120611 0.91154239
v 0.00000000 0.00000000 0.42259542 0.90631844
v 0.00000000 0.00000000 0.37862595 0.92554978
v 0.00000000 0.00000000 0.57847328 0.81570133
v 0.00000000 0.00000000 0.71551145 0.69860101
v 0.00000000 0.00000000 0.73432061 0.67880280
v 0.00000000 0.00000000 -0.38265649 0.92389069
v 0.00097710 -0.00235115 -0.38265649 0.92388718
v 0.00360305 -0.00873282 -0.38265649 0.92384239
v 0.00745038 -0.01801527 -0.38259542 0.92371028
v 0.01206107 -0.02912977 -0.38247328 0.92342849
v 0.01697710 -0.04097710 -0.38229008 0.92297722
v 0.02170992 -0.05245802 -0.38204580 0.92239788
v 0.02586260 -0.06247328 -0.38180153 0.92176776
v 0.02897710 -0.06998473 -0.38155725 0.92123641
v 0.03056489 -0.07383206 -0.38143511 0.92093532
v 0.03022901 -0.07297710 -0.38146565 0.92100190
v 0.02748092 -0.06635115 -0.38167939 0.92150050
v 0.02186260 -0.05282443 -0.38204580 0.92237336
v 0.01294656 -0.03126718 -0.38244275 0.92335924
v 0.00024427 -0.00064122 -0.38265649 0.92389044
v -0.02384733 0.05758779 -0.38192366 0.92208962
v -0.06378626 0.15404580 -0.37731298 0.91095341
v -0.11367939 0.27444275 -0.36540458 0.88217780
v -0.16696183 0.40314504 -0.34430534 0.83129517
v -0.21737405 0.52485496 -0.31493130 0.76032498
v -0.25984733 0.62732824 -0.28091603 0.67825130
v -0.27059542 0.65325191 -0.27059542 0.65331323
v -0.38265649 -0.92387786 0.00000000 0.00486896
v -0.38265649 -0.92384733 0.00097710 0.00889782
v -0.38265649 -0.92381679 0.00360305 0.01111580
v -0.38259542 -0.92369466 0.00745038 0.01879942
v -0.38247328 -0.92338931 0.01206107 0.03034626
v -0.38229008 -0.92296183 0.01697710 0.04132230
v -0.38204580 -0.92238168 0.02170992 0.05274204
v -0.38180153 -0.92174046 0.02586260 0.06287486
v -0.38155725 -0.92122137 0.02897710 0.07018241
v -0.38143511 -0.92091603 0.03056489 0.07407230
v -0.38146565 -0.92097710 0.03022901 0.07328948
v -0.38167939 -0.92146565 0.02748092 0.06683338
v -0.38204580 -0.92235115 0.02186260 0.05321088
v -0.38244275 -0.92332824 0.01294656 0.03216962
v -0.38265649 -0.92387786 0.00024427 0.00486283
v -0.38192366 -0.92207634 -0.02384733 -0.05780009
v -0.37731298 -0.91093130 -0.06378626 -0.15417653
v -0.36540458 -0.88216794 -0.11367939 -0.27447444
v -0.34430534 -0.83126718 -0.16696183 -0.40320275
v -0.31493130 -0.76030534 -0.21737405 -0.52488340
v -0.28091603 -0.67819847 -0.25984733 -0.62738535
v -0.27059542 -0.65325191 -0.27059542 -0.65331323
v 0.00000000 0.00000000 -0.92387786 0.38268746
v -0.00235115 0.00097710 -0.92384733 0.38275270
v -0.00873282 0.00360305 -0.92381679 0.38271829
v -0.01801527 0.00745038 -0.92369466 0.38263314
v -0.02912977 0.01206107 -0.92338931 0.38256786
v -0.04097710 0.01697710 -0.92296183 0.38232723
v -0.05245802 0.02170992 -0.92238168 0.38208490
v -0.06247328 0.02586260 -0.92174046 0.38186744
v -0.06998473 0.02897710 -0.92122137 0.38159356
v -0.07383206 0.03056489 -0.92091603 0.38148169
v -0.07297710 0.03022901 -0.92097710 0.38152553
v -0.06635115 0.02748092 -0.92146565 0.38176352
v -0.05282443 0.02186260 -0.92235115 0.38209943
v -0.03126718 0.01294656 -0.92332824 0.38251759
v -0.00064122 0.00024427 -0.92387786 0.38268685
v 0.05758779 -0.02384733 -0.92207634 0.38195573
v 0.15404580 -0.06378626 -0.91093130 0.37736637
v 0.27444275 -0.11367939 -0.88216794 0.36542838
v 0.40314504 -0.16696183 -0.83126718 0.34437292
v 0.52485496 -0.21737405 -0.76030534 0.31497869
v 0.62732824 -0.25984733 -0.67819847 0.28104354
v 0.65325191 -0.27059542 -0.65325191 0.27074343
v 0.00000000 0.00000000 0.92387786 0.38268746
v -0.00235115 -0.00097710 0.92384733 0.38275270
v -0.00873282 -0.00360305 0.92381679 0.38271829
v -0.01801527 -0.00745038 0.92369466 0.38263314
v -0.02912977 -0.01206107 0.92338931 0.38256786
v -0.04097710 -0.01697710 0.92296183 0.38232723
v -0.05245802 -0.02170992 0.92238168 0.38208490
v -0.06247328 -0.02586260 0.92174046 0.38186744
v -0.06998473 -0.02897710 0.92122137 0.38159356
v -0.07383206 -0.03056489 0.92091603 0.38148169
v -0.07297710 -0.03022901 0.92097710 0.38152553
v -0.06635115 -0.02748092 0.92146565 0.38176352
v -0.05282443 -0.02186260 0.92235115 0.38209943
v -0.03126718 -0.01294656 0.92332824 0.38251759
v -0.00064122 -0.00024427 0.92387786 0.38268685
v 0.05758779 0.02384733 0.92207634 0.38195573
v 0.15404580 0.06378626 0.91093130 0.37736637
v 0.27444275 0.11367939 0.88216794 0.36542838
v 0.40314504 0.16696183 0.83126718 0.34437292
v 0.52485496 0.21737405 0.76030534 0.31497869
v 0.62732824 0.25984733 0.67819847 0.28104354
v 0.65325191 0.27059542 0.65325191 0.27074343
v 0.00033588 -0.00082443 -0.38265649 0.92389026
v 0.00238168 -0.00580153 -0.38265649 0.92386941
v 0.00586260 -0.01419847 -0.38262595 0.92377563
v 0.01032061 -0.02494656 -0.38253435 0.92354676
v 0.01526718 -0.03688550 -0.38235115 0.92315436
v 0.02027481 -0.04894656 -0.38213740 0.92258559
v 0.02482443 -0.05996947 -0.38186260 0.92193729
v 0.02851908 -0.06885496 -0.38161832 0.92131054
v 0.03083969 -0.07450382 -0.38143511 0.92087206
v 0.03138931 -0.07578626 -0.38137405 0.92077413
v 0.02964885 -0.07160305 -0.38152672 0.92110331
v 0.02519084 -0.06082443 -0.38183206 0.92188399
v 0.01752672 -0.04229008 -0.38225954 0.92292037
v 0.00616794 -0.01493130 -0.38262595 0.92376209
v -0.01239695 0.02992366 -0.38247328 0.92339866
v -0.05035115 0.12155725 -0.37932824 0.91585953
v -0.10238168 0.24717557 -0.36870229 0.89021393
v -0.16021374 0.38677863 -0.34751145 0.83902899
v -0.21551145 0.52030534 -0.31621374 0.76344354
v -0.26155725 0.63151145 -0.27929771 0.67436925
v -0.00082443 0.00033588 -0.92387786 0.38268643
v -0.00580153 0.00238168 -0.92384733 0.38270979
v -0.01419847 0.00586260 -0.92375573 0.38267400
v -0.02494656 0.01032061 -0.92354198 0.38254589
v -0.03688550 0.01526718 -0.92311450 0.38244736
v -0.04894656 0.02027481 -0.92256489 0.38218739
v -0.05996947 0.02482443 -0.92192366 0.38189549
v -0.06885496 0.02851908 -0.92128244 0.38168615
v -0.07450382 0.03083969 -0.92085496 0.38147639
v -0.07578626 0.03138931 -0.92076336 0.38140004
v -0.07160305 0.02964885 -0.92109924 0.38153656
v -0.06082443 0.02519084 -0.92186260 0.38188371
v -0.04229008 0.01752672 -0.92290076 0.38230687
v -0.01493130 0.00616794 -0.92375573 0.38264131
v 0.02992366 -0.01239695 -0.92338931 0.38249584
v 0.12155725 -0.05035115 -0.91581679 0.37943141
v 0.24717557 -0.10238168 -0.89016794 0.36881332
v 0.38677863 -0.16021374 -0.83899237 0.34759986
v 0.52030534 -0.21551145 -0.76341985 0.31627093
v 0.63151145 -0.26155725 -0.67432061 0.27941511
v -0.00082443 -0.00033588 0.92387786 0.38268643
v -0.00580153 -0.00238168 0.92384733 0.38270979
v -0.01419847 -0.00586260 0.92375573 0.38267400
v -0.02494656 -0.01032061 0.92354198 0.38254589
v -0.03688550 -0.01526718 0.92311450 0.38244736
v -0.04894656 -0.02027481 0.92256489 0.38218739
v -0.05996947 -0.02482443 0.92192366 0.38189549
v -0.06885496 -0.02851908 0.92128244 0.38168615
v -0.07450382 -0.03083969 0.92085496 0.38147639
v -0.07578626 -0.03138931 0.92076336 0.38140004
v -0.07160305 -0.02964885 0.92109924 0.38153656
v -0.06082443 -0.02519084 0.92186260 0.38188371
v -0.04229008 -0.01752672 0.92290076 0.38230687
v -0.01493130 -0.00616794 0.92375573 0.38264131
v 0.02992366 0.01239695 0.92338931 0.38249584
v 0.12155725 0.05035115 0.91581679 0.37943141
v 0.24717557 0.10238168 0.89016794 0.36881332
v 0.38677863 0.16021374 0.83899237 0.34759986
v 0.52030534 0.21551145 0.76341985 0.31627093
v 0.63151145 0.26155725 0.67432061 0.27941511
v -0.38265649 -0.92387786 0.00033588 0.00485736
v -0.38265649 -0.92384733 0.00238168 0.00862864
v -0.38262595 -0.92375573 0.00586260 0.01543921
v -0.38253435 -0.92354198 0.01032061 0.02512285
v -0.38235115 -0.92311450 0.01526718 0.03786988
v -0.38213740 -0.92256489 0.02027481 0.04933526
v -0.38186260 -0.92192366 0.02482443 0.06017860
v -0.38161832 -0.92128244 0.02851908 0.06922991
v -0.38143511 -0.92085496 0.03083969 0.07471483
v -0.38137405 -0.92076336 0.03138931 0.07591696
v -0.38152672 -0.92109924 0.02964885 0.07165546
v -0.38183206 -0.92186260 0.02519084 0.06114780
v -0.38225954 -0.92290076 0.01752672 0.04271578
v -0.38262595 -0.92375573 0.00616794 0.01531979
v -0.38247328 -0.92338931 -0.01239695 -0.03021060
v -0.37932824 -0.91581679 -0.05035115 -0.12187881
v -0.36870229 -0.89016794 -0.10238168 -0.24734117
v -0.34751145 -0.83899237 -0.16021374 -0.38685806
v -0.31621374 -0.76341985 -0.21551145 -0.52034010
v -0.27929771 -0.67432061 -0.26155725 -0.63156338
v 0.00000000 0.00000000 -0.00073282 0.99999973
v 0.00000000 0.00000000 -0.02299237 0.99973564
v 0.00000000 0.00000000 -0.03358779 0.99943577
v 0.00000000 0.00000000 0.02723664 0.99962901
v 0.00000000 0.00000000 0.19890076 0.98001964
v 0.00000000 0.00000000 0.39694656 0.91784172
v 0.00000000 0.00000000 1.00000000 0.00000000
v 0.00000000 0.00000000 0.99993893 0.01105141
v 0.00000000 0.00000000 0.99969466 0.02471020
v 0.00000000 0.00000000 0.99993893 -0.01105141
v 0.00000000 0.00000000 0.99746565 -0.07114970
v 0.00000000 0.00000000 0.98854962 -0.15089616
v 0.00000000 0.00000000 0.97087023 -0.23960592
v 0.00000000 0.00000000 0.94436641 -0.32889524
v 0.00000000 0.00000000 0.91151145 -0.41127470
v 0.00000000 0.00000000 0.90629008 -0.42265624
v 0.00000000 0.01789313 0.00000000 0.99983991
v 0.00000000 0.05502290 0.00000000 0.99848509
v 0.00000000 0.08644275 0.00000000 0.99625682
v 0.00000000 0.08735878 0.00000000 0.99617691
v 0.00000000 0.03288550 0.00000000 0.99945913
v 0.00000000 -0.10821374 0.00000000 0.99412765
v 0.00000000 -0.34106870 0.00000000 0.94003837
v 0.00000000 -0.59963359 0.00000000 0.80027468
v 0.00000000 -0.81218321 0.00000000 0.58340247
v 0.00000000 -0.90629008 0.00000000 0.42265624
v -0.00683969 0.01654962 -0.38259542 0.92374243
v -0.02103817 0.05083969 -0.38207634 0.92249141
v -0.03306870 0.07984733 -0.38122137 0.92043529
v -0.03340458 0.08070229 -0.38119084 0.92036124
v -0.01258015 0.03038168 -0.38247328 0.92338122
v 0.04140458 -0.09996947 -0.38042748 0.91845887
v 0.13050382 -0.31511450 -0.35972519 0.86848684
v 0.22946565 -0.55398473 -0.30622901 0.73937151
v 0.31080916 -0.75035115 -0.22323664 0.53901413
v 0.34680916 -0.83731298 -0.16170992 0.39048724
v -0.01264122 0.01264122 -0.70699237 0.70699519
v -0.03890076 0.03890076 -0.70601527 0.70605659
v -0.06109924 0.06109924 -0.70445802 0.70446623
v -0.06177099 0.06177099 -0.70439695 0.70441013
v -0.02326718 0.02326718 -0.70671756 0.70673020
v 0.07651908 -0.07651908 -0.70293130 0.70297742
v 0.24116031 -0.24116031 -0.66470229 0.66472120
v 0.42400000 -0.42400000 -0.56586260 0.56590416
v 0.57429008 -0.57429008 -0.41248855 0.41259546
v 0.64085496 -0.64085496 -0.29880916 0.29886941
v -0.01654962 0.00683969 -0.92372519 0.38263703
v -0.05083969 0.02103817 -0.92247328 0.38212009
v -0.07984733 0.03306870 -0.92039695 0.38131395
v -0.08070229 0.03340458 -0.92033588 0.38125208
v -0.03038168 0.01258015 -0.92335878 0.38252746
v 0.09996947 -0.04140458 -0.91844275 0.38046640
v 0.31511450 -0.13050382 -0.86845802 0.35979477
v 0.55398473 -0.22946565 -0.73932824 0.30633344
v 0.75035115 -0.31080916 -0.53896183 0.22336286
v 0.83731298 -0.34680916 -0.39044275 0.16181732
v 0.01789313 0.00000000 0.99981679 0.00679813
v 0.05502290 0.00000000 0.99847328 0.00485640
v 0.08644275 0.00000000 0.99624427 0.00499962
v 0.08735878 0.00000000 0.99615267 0.00694970
v 0.03288550 0.00000000 0.99945038 0.00418075
v -0.10821374 0.00000000 0.99410687 0.00642783
v -0.34106870 0.00000000 0.94003053 0.00383859
v -0.59963359 0.00000000 0.80024427 0.00697575
v -0.81218321 0.00000000 0.58335878 -0.00713969
v -0.90629008 0.00000000 0.42259542 -0.00716998
v 0.01654962 0.00683969 0.92372519 0.38263703
v 0.05083969 0.02103817 0.92247328 0.38212009
v 0.07984733 0.03306870 0.92039695 0.38131395
v 0.08070229 0.03340458 0.92033588 0.38125208
v 0.03038168 0.01258015 0.92335878 0.38252746
v -0.09996947 -0.04140458 0.91844275 0.38046640
v -0.31511450 -0.13050382 0.86845802 0.35979477
v -0.55398473 -0.22946565 0.73932824 0.30633344
v -0.75035115 -0.31080916 0.53896183 0.22336286
v -0.83731298 -0.34680916 0.39044275 0.16181732
v 0.01264122 0.01264122 0.70699237 0.70699519
v 0.03890076 0.03890076 0.70601527 0.70605659
v 0.06109924 0.06109924 0.70445802 0.70446623
v 0.06177099 0.06177099 0.70439695 0.70441013
v 0.02326718 0.02326718 0.70671756 0.70673020
v -0.07651908 -0.07651908 0.70293130 0.70297742
v -0.24116031 -0.24116031 0.66470229 0.66472120
v -0.42400000 -0.42400000 0.56586260 0.56590416
v -0.57429008 -0.57429008 0.41248855 0.41259546
v -0.64085496 -0.64085496 0.29880916 0.29886941
v 0.00000000 0.00000000 0.38265649 0.92389069
v 0.00683969 0.01654962 0.38259542 0.92374243
v 0.02103817 0.05083969 0.38207634 0.92249141
v 0.03306870 0.07984733 0.38122137 0.92043529
v 0.03340458 0.08070229 0.38119084 0.92036124
v 0.01258015 0.03038168 0.38247328 0.92338122
v -0.04140458 -0.09996947 0.38042748 0.91845887
v -0.13050382 -0.31511450 0.35972519 0.86848684
v -0.22946565 -0.55398473 0.30622901 0.73937151
v -0.31080916 -0.75035115 0.22323664 0.53901413
v -0.34680916 -0.83731298 0.16170992 0.39048724
v 0.00000000 -0.02308397 0.00000000 0.99973353
v 0.00000000 -0.07096183 0.00000000 0.99747903
v 0.00000000 -0.11141985 0.00000000 0.99377342
v 0.00000000 -0.11258015 0.00000000 0.99364265
v 0.00000000 -0.04244275 0.00000000 0.99909890
v 0.00000000 0.13941985 0.00000000 0.99023336
v 0.00000000 0.43404580 0.00000000 0.90089080
v 0.00000000 0.73758779 0.00000000 0.67525126
v 0.00000000 0.94003053 0.00000000 0.34109030
v 0.00000000 0.99422901 0.00000000 0.10727852
v 0.00894656 -0.02161832 -0.38256489 0.92363235
v 0.02751145 -0.06647328 -0.38167939 0.92149078
v 0.04320611 -0.10433588 -0.38021374 0.91797863
v 0.04366412 -0.10543511 -0.38015267 0.91785665
v 0.01645802 -0.03972519 -0.38232061 0.92302871
v -0.05407634 0.13056489 -0.37883969 0.91460868
v -0.16821374 0.40613740 -0.34369466 0.82983765
v -0.28519084 0.68848855 -0.25514504 0.61607687
v -0.36186260 0.87364885 -0.12442748 0.30051779
v -0.38122137 0.92033588 -0.03334351 0.08087241
v 0.01654962 -0.01654962 -0.70690076 0.70692541
v 0.05087023 -0.05087023 -0.70525191 0.70529723
v 0.07984733 -0.07984733 -0.70256489 0.70260329
v 0.08070229 -0.08070229 -0.70247328 0.70249951
v 0.03041221 -0.03041221 -0.70644275 0.70646220
v -0.09993893 0.09993893 -0.70000000 0.70001744
v -0.31083969 0.31083969 -0.63511450 0.63512750
v -0.52696183 0.52696183 -0.47148092 0.47151691
v -0.66867176 0.66867176 -0.22992366 0.22998103
v -0.70439695 0.70439695 -0.06161832 0.06207307
v 0.02161832 -0.00894656 -0.92360305 0.38263561
v 0.06647328 -0.02751145 -0.92146565 0.38174007
v 0.10433588 -0.04320611 -0.91795420 0.38027273
v 0.10543511 -0.04366412 -0.91783206 0.38021203
v 0.03972519 -0.01645802 -0.92302290 0.38233463
v -0.13056489 0.05407634 -0.91459542 0.37887172
v -0.40613740 0.16821374 -0.82980153 0.34378187
v -0.68851908 0.28519084 -0.61603053 0.25517452
v -0.87364885 0.36186260 -0.30042748 0.12464537
v -0.92033588 0.38122137 -0.08051908 0.03418791
v -0.02341985 0.00000000 0.99972519 0.00102643
v -0.07193893 0.00000000 0.99740458 0.00298222
v -0.11294656 0.00000000 0.99358779 0.00513658
v -0.11413740 0.00000000 0.99343511 0.00770235
v -0.04302290 0.00000000 0.99905344 0.00642369
v 0.14131298 0.00000000 0.98995420 0.00461816
v 0.43960305 0.00000000 0.89816794 0.00659613
v 0.74522137 0.00000000 0.66677863 0.00716712
v 0.94561832 0.00000000 0.32519084 0.00754384
v 0.99618321 0.00000000 0.08714504 0.00497616
v -0.02161832 -0.00894656 0.92360305 0.38263561
v -0.06647328 -0.02751145 0.92146565 0.38174007
v -0.10433588 -0.04320611 0.91795420 0.38027273
v -0.10543511 -0.04366412 0.91783206 0.38021203
v -0.03972519 -0.01645802 0.92302290 0.38233463
v 0.13056489 0.05407634 0.91459542 0.37887172
v 0.40613740 0.16821374 0.82980153 0.34378187
v 0.68848855 0.28519084 0.61603053 0.25525690
v 0.87364885 0.36186260 0.30042748 0.12464537
v 0.92033588 0.38122137 0.08051908 0.03418791
v -0.01654962 -0.01654962 0.70690076 0.70692541
v -0.05087023 -0.05087023 0.70525191 0.70529723
v -0.07984733 -0.07984733 0.70256489 0.70260329
v -0.08070229 -0.08070229 0.70247328 0.70249951
v -0.03041221 -0.03041221 0.70644275 0.70646220
v 0.09993893 0.09993893 0.70000000 0.70001744
v 0.31083969 0.31083969 0.63511450 0.63512750
v 0.52696183 0.52696183 0.47148092 0.47151691
v 0.66867176 0.66867176 0.22992366 0.22998103
v 0.70439695 0.70439695 0.06161832 0.06207307
v -0.00894656 -0.02161832 0.38256489 0.92363235
v -0.02751145 -0.06647328 0.38167939 0.92149078
v -0.04320611 -0.10433588 0.38021374 0.91797863
v -0.04366412 -0.10543511 0.38015267 0.91785665
v -0.01645802 -0.03972519 0.38232061 0.92302871
v 0.05407634 0.13056489 0.37883969 0.91460868
v 0.16821374 0.40613740 0.34369466 0.82983765
v 0.28519084 0.68851908 0.25514504 0.61604275
v 0.36186260 0.87364885 0.12442748 0.30051779
v 0.38122137 0.92033588 0.03334351 0.08087241
v 0.00000000 0.00000000 -0.52708397 0.84981321
v 0.00000000 0.00000000 -0.65761832 0.75335128
v 0.00000000 0.00000000 -0.77080916 0.63706612
v 0.00000000 0.00000000 -0.86372519 0.50396309
o rot_anim_00
l 3 3 51 52 53 54 55 56 57 58 59 60 60 60 60 60 60 60 60 60 60 60 60 60 60 60 60 60 60 60
o rot_anim_01
l 61 61 61 61 61 61 61 61 60 62 63 64 64 64 64 64 64 64 64 64 64 64 64 64 64 64 64 64 64 64
o rot_anim_02
l 65 66 67 68 69 70 71 72 73 74 75 76 77 78 79 80 81 82 83 84 85 86 86 86 86 86 86 86 86 86
o rot_anim_03
l 87 88 89 90 91 92 93 94 95 96 97 98 99 100 101 102 103 104 105 106 107 108 108 108 108 108 108 108 108 108
o rot_anim_04
l 109 110 111 112 113 114 115 116 117 118 119 120 121 122 123 124 125 126 127 128 129 130 130 130 130 130 130 130 130 130
o rot_anim_05
l 131 132 133 134 135 136 137 138 139 140 141 142 143 144 145 146 147 148 149 150 151 152 152 152 152 152 152 152 152 152
o rot_anim_06
l 65 65 65 153 154 155 156 157 158 159 160 161 162 163 164 165 166 167 168 169 170 171 172 86 86 86 86 86 86 86
o rot_anim_07
l 109 109 109 173 174 175 176 177 178 179 180 181 182 183 184 185 186 187 188 189 190 191 192 130 130 130 130 130 130 130
o rot_anim_08
l 131 131 131 193 194 195 196 197 198 199 200 201 202 203 204 205 206 207 208 209 210 211 212 152 152 152 152 152 152 152
o rot_anim_09
l 87 87 87 213 214 215 216 217 218 219 220 221 222 223 224 225 226 227 228 229 230 231 232 108 108 108 108 108 108 108
o rot_anim_10
l 3 3 3 3 3 233 234 235 236 237 238 60 60 60 60 60 60 60 60 60 60 60 60 60 60 60 60 60 60 60
o rot_anim_11
l 239 239 240 241 241 242 243 244 245 246 247 248 248 248 248 248 248 248 248 248 248 248 248 248 248 248 248 248 248 248
o rot_anim_12
l 3 249 250 251 252 253 254 255 256 257 258 258 258 258 258 258 258 258 258 258 258 258 258 258 258 258 258 258 258 258
o rot_anim_13
l 65 259 260 261 262 263 264 265 266 267 268 268 268 268 268 268 268 268 268 268 268 268 268 268 268 268 268 268 268 268
o rot_anim_14
l 7 269 270 271 272 273 274 275 276 277 278 278 278 278 278 278 278 278 278 278 278 278 278 278 278 278 278 278 278 278
o rot_anim_15
l 109 279 280 281 282 283 284 285 286 287 288 288 288 288 288 288 288 288 288 288 288 288 288 288 288 288 288 288 288 288
o rot_anim_16
l 239 289 290 291 292 293 294 295 296 297 298 298 298 298 298 298 298 298 298 298 298 298 298 298 298 298 298 298 298 298
o rot_anim_17
l 131 299 300 301 302 303 304 305 306 307 308 308 308 308 308 308 308 308 308 308 308 308 308 308 308 308 308 308 308 308
o rot_anim_18
l 24 309 310 311 312 313 314 315 316 317 318 318 318 318 318 318 318 318 318 318 318 318 318 318 318 318 318 318 318 318
o rot_anim_19
l 319 320 321 322 323 324 325 326 327 328 329 329 329 329 329 329 329 329 329 329 329 329 329 329 329 329 329 329 329 329
o rot_anim_20
l 3 330 331 332 333 334 335 336 337 338 339 339 339 339 339 339 339 339 339 339 339 339 339 339 339 339 339 339 339 339
o rot_anim_21
l 65 340 341 342 343 344 345 346 347 348 349 349 349 349 349 349 349 349 349 349 349 349 349 349 349 349 349 349 349 349
o rot_anim_22
l 7 350 351 352 353 354 355 356 357 358 359 359 359 359 359 359 359 359 359 359 359 359 359 359 359 359 359 359 359 359
o rot_anim_23
l 109 360 361 362 363 364 365 366 367 368 369 369 369 369 369 369 369 369 369 369 369 369 369 369 369 369 369 369 369 369
o rot_anim_24
l 239 370 371 372 373 374 375 376 377 378 379 379 379 379 379 379 379 379 379 379 379 379 379 379 379 379 379 379 379 379
o rot_anim_25
l 131 380 381 382 383 384 385 386 387 388 389 389 389 389 389 389 389 389 389 389 389 389 389 389 389 389 389 389 389 389
o rot_anim_26
l 24 390 391 392 393 394 395 396 397 398 399 399 399 399 399 399 399 399 399 399 399 399 399 399 399 399 399 399 399 399
o rot_anim_27
l 319 400 401 402 403 404 405 406 407 408 409 409 409 409 409 409 409 409 409 409 409 409 409 409 409 409 409 409 409 409
o rot_anim_28
l 65 410 411 412 413 109 109 109 109 109 109 109 109 109 109 109 109 109 109 109 109 109 109 109 109 109 109 109 109 109
